<svg width="188" height="188" viewBox="0 0 188 188" fill="none" xmlns="http://www.w3.org/2000/svg">
<path d="M94 184.625C144.051 184.625 184.625 144.051 184.625 94C184.625 43.9492 144.051 3.375 94 3.375C43.9492 3.375 3.375 43.9492 3.375 94C3.375 144.051 43.9492 184.625 94 184.625Z" fill="white"/>
<path d="M184.623 94.0025C184.623 85.6338 183.398 77.5587 181.273 69.865C167.935 36.4213 135.323 12.7525 97.1226 12.7525C47.0726 12.7525 6.49756 53.3275 6.49756 103.378C6.49756 111.746 7.72256 119.821 9.84756 127.515C23.1851 160.959 55.7976 184.628 93.9976 184.628C144.048 184.628 184.623 144.053 184.623 94.0025Z" fill="#80D8FF"/>
<path d="M124.935 179.103C120.847 180.584 116.504 177.54 116.516 173.19C116.547 165.521 116.579 156.459 116.579 150.128C116.579 141.64 113.679 136.09 110.429 133.277C130.616 131.027 151.804 123.334 151.804 88.3838C151.804 78.4463 148.297 70.3275 142.485 63.965C143.422 61.6588 146.529 52.415 141.585 39.8838C141.585 39.8838 133.991 37.44 116.691 49.2088C109.454 47.19 101.697 46.1838 94.0036 46.1463C86.2974 46.1838 78.5474 47.19 71.3161 49.2088C54.0036 37.4463 46.3911 39.89 46.3911 39.89C41.4661 52.415 44.5724 61.665 45.5099 63.9713C39.7099 70.3338 36.1786 78.4525 36.1786 88.39C36.1786 123.253 57.3349 131.059 77.4599 133.353C74.8661 135.628 72.5224 139.64 71.7036 145.515C66.5349 147.846 53.4161 151.865 45.3224 137.959C45.3224 137.959 40.5349 129.228 31.4474 128.584C31.4474 128.584 22.5911 128.471 30.8224 134.115C30.8224 134.115 36.7661 136.915 40.8786 147.421C40.8786 147.421 46.1974 165.121 71.4099 159.621C71.4286 162.884 71.4536 168.109 71.4786 173.178C71.4974 177.515 67.1786 180.609 63.1036 179.128C54.1349 175.871 45.8224 171.246 38.4224 165.503C53.7786 177.452 73.0349 184.64 93.9974 184.64C114.491 184.64 133.335 177.753 148.522 166.278C141.397 171.646 133.472 176.003 124.935 179.103Z" fill="white"/>
<path d="M65.2062 182.593C64.1374 182.593 63.0687 182.411 62.0437 182.036C23.3437 167.999 -1.45005 130.936 0.343697 89.805C0.418697 88.0863 1.7937 86.7738 3.59995 86.8175C5.32495 86.8925 6.66245 88.355 6.58745 90.0738C4.91245 128.461 28.0562 163.055 64.1749 176.149C65.1187 176.499 66.1624 176.355 67.0062 175.755C67.8749 175.143 68.3687 174.193 68.3624 173.149L68.3125 163.317C43.7687 166.824 37.9562 148.474 37.8937 148.28C34.4437 139.499 29.5062 136.905 29.4562 136.88C27.3187 135.449 23.2312 132.655 24.3937 128.993C25.4374 125.693 29.7187 125.474 31.4937 125.418C42.3437 126.18 47.8437 135.999 48.0687 136.418C54.0437 146.686 63.1562 145.455 68.9125 143.255C69.475 140.43 70.4062 137.861 71.6562 135.655C53.7062 132.618 33.0562 123.324 33.0562 88.355C33.0562 78.7862 36.0499 70.355 41.9562 63.255C40.6562 59.0425 39.0312 50.055 43.4812 38.7238C43.8249 37.8488 44.5437 37.18 45.4374 36.8925C46.3374 36.5988 54.6437 34.43 71.8749 45.805C78.8687 43.9863 86.3062 43.0425 93.9937 43.005C101.706 43.0425 109.137 43.9863 116.137 45.805C133.362 34.43 141.637 36.5988 142.55 36.8925C143.444 37.18 144.156 37.8488 144.5 38.7175C148.969 50.0488 147.35 59.0363 146.044 63.2613C151.944 70.3425 154.931 78.7738 154.931 88.3613C154.931 123.33 134.256 132.599 116.275 135.605C118.487 139.499 119.706 144.518 119.706 150.105C119.706 156.436 119.675 165.511 119.644 173.18C119.644 174.218 120.125 175.149 120.981 175.755C121.837 176.355 122.894 176.499 123.875 176.149C158.344 163.624 181.5 130.605 181.5 93.9925C181.5 69.8488 171.875 47.3675 154.406 30.6863C136.944 14.0175 114.019 5.455 89.8062 6.5925C88.0875 6.72375 86.6249 5.33625 86.5374 3.6175C86.4562 1.8925 87.7874 0.430002 89.5125 0.348752C115.462 -0.838748 140.012 8.31125 158.719 26.1675C177.444 44.0363 187.75 68.1237 187.75 93.9925C187.75 133.224 162.937 168.599 126.012 182.018C123.119 183.061 119.9 182.636 117.387 180.861C114.881 179.093 113.387 176.211 113.4 173.155C113.431 165.493 113.462 156.43 113.462 150.105C113.462 140.986 109.919 136.936 108.394 135.624C107.456 134.811 107.081 133.518 107.45 132.336C107.819 131.149 108.856 130.293 110.087 130.155C129.175 128.03 148.687 121.399 148.687 88.3675C148.687 79.7425 145.825 72.23 140.187 66.0613C139.375 65.1675 139.144 63.8925 139.6 62.7738C140.469 60.6488 142.875 53.1675 139.337 42.7863C136.694 42.8613 129.944 43.9675 118.462 51.7863C117.7 52.305 116.75 52.4675 115.862 52.2113C109.087 50.3237 101.531 49.305 93.9937 49.2613C86.3812 49.2988 79.0249 50.2925 72.1562 52.2113C71.2749 52.4738 70.325 52.305 69.5562 51.7863C58.1187 44.005 51.3687 42.8675 48.6437 42.7988C45.1249 53.18 47.5374 60.6425 48.3999 62.7738C48.8499 63.8925 48.6249 65.1675 47.8124 66.055C42.1624 72.2487 39.2999 79.755 39.2999 88.3675C39.2999 121.38 58.7687 128.055 77.8124 130.224C79.0375 130.361 80.0687 131.211 80.4374 132.393C80.8062 133.567 80.4437 134.861 79.5187 135.674C78.1187 136.905 75.6375 139.874 74.7937 145.924C74.6499 146.986 73.9624 147.899 72.9812 148.336C68.2937 150.449 52.2562 156.068 42.6187 139.505C42.5499 139.386 39.3374 133.749 33.5937 132.093C35.6312 133.455 40.3249 137.418 43.7874 146.249C44.0562 147.08 48.8375 161.305 70.7437 156.536C71.6687 156.343 72.6249 156.555 73.3624 157.149C74.1 157.736 74.5312 158.63 74.5374 159.568L74.6062 173.13C74.6187 176.199 73.1249 179.099 70.5999 180.874C68.9999 182.005 67.1124 182.593 65.2062 182.593Z" fill="#455A64"/>
<path d="M92.3563 187.75C40.7125 187.75 0.25 146.569 0.25 94C0.25 71.3187 7.9875 49.5563 22.0312 32.725C23.1313 31.4 25.1125 31.2188 26.4313 32.3312C27.7563 33.4375 27.9375 35.4062 26.8312 36.7313C13.7187 52.4375 6.5 72.775 6.5 94C6.5 143.069 44.2125 181.5 92.3563 181.5C141.512 181.5 181.5 142.25 181.5 94C181.5 45.75 141.512 6.5 92.3563 6.5C77.1 6.5 62.2812 10.375 49.4937 17.7C48.0062 18.5438 46.0875 18.0312 45.2312 16.5375C44.375 15.0375 44.8937 13.1313 46.3875 12.2688C60.1188 4.40625 76.0188 0.25 92.3563 0.25C144.956 0.25 187.75 42.3063 187.75 94C187.75 145.694 144.956 187.75 92.3563 187.75Z" fill="#455A64"/>
<path d="M41.1638 22.4625C41.1638 24.1813 39.7576 25.5875 38.0388 25.5875C36.3201 25.5875 34.9138 24.1813 34.9138 22.4625C34.9138 20.7438 36.3201 19.3375 38.0388 19.3375C39.7576 19.3375 41.1638 20.7375 41.1638 22.4625Z" fill="#455A64"/>
</svg>
