<svg width="196" height="194" viewBox="0 0 196 194" fill="none" xmlns="http://www.w3.org/2000/svg">
<path d="M177.935 21.275C203.551 37.951 156.68 76.5392 146.345 87.3381C138.608 95.4236 130.972 103.989 118.671 103.842C107.165 103.705 97.8493 96.8401 93.5744 86.987C84.6563 66.4322 106.959 49.8163 119.999 37.1287C126.375 30.9256 132.561 23.4663 139.607 18.0507C147.809 11.7476 173.381 -0.109962 179.821 18.6035C181.624 23.8438 189.995 21.5922 188.174 16.3007C183.864 3.77662 176.374 0.929277 163.429 0.37946C143.762 -0.455838 137.394 8.11936 123.678 21.4644C106.195 38.4741 66.4819 68.8012 87.9314 97.0939C95.388 106.929 109.058 113.058 121.188 112.334C137.663 111.349 147.074 99.1966 157.633 88.0187C174.07 70.6183 216.418 36.0008 182.307 13.7952C177.621 10.7448 173.275 18.2415 177.935 21.275Z" fill="#231F20"/>
<path d="M94.3082 103.194C112.832 124.581 87.3639 146.689 72.6112 161.359C67.0009 166.938 61.1383 173.319 54.6175 177.847C41.8565 186.706 18.5563 190.315 11.0673 168.248C3.50977 145.979 24.462 130.576 38.2898 117.144C52.9322 102.922 72.1662 79.7896 92.8865 100.102C96.8707 104.008 103.001 97.8873 99.0118 93.9766C74.505 69.9524 51.0877 92.6383 32.1645 111.019C21.6005 121.28 4.74879 132.299 1.60828 147.604C-0.601219 158.372 1.47495 174.002 8.5478 182.726C16.4257 192.443 31.7776 195.021 43.5732 193.049C56.9608 190.81 66.9219 178.949 76.2337 169.913C96.2204 150.518 124.067 124.355 100.434 97.0691C96.7772 92.8478 90.6726 98.997 94.3082 103.194Z" fill="#231F20"/>
<path d="M132.712 54.9126C105.781 81.8787 78.6937 108.692 52.3181 136.204C48.4595 140.229 54.5763 146.364 58.4434 142.33C84.8189 114.818 111.907 88.0039 138.837 61.0379C142.781 57.0885 136.658 50.9612 132.712 54.9126Z" fill="#231F20"/>
</svg>
