<svg width="188" height="158" viewBox="0 0 188 158" fill="none" xmlns="http://www.w3.org/2000/svg">
<path d="M184.625 21.6875C177.969 24.7188 170.794 26.7688 163.275 27.6813C170.956 22.975 176.85 15.5125 179.625 6.625C172.438 10.9813 164.488 14.1563 155.994 15.8563C149.231 8.45625 139.556 3.8375 128.856 3.8375C108.338 3.8375 91.6875 20.8875 91.6875 41.9125C91.6875 44.9 92.0062 47.7938 92.6438 50.5875C61.7438 48.9938 34.35 33.85 16 10.7875C12.8 16.425 10.9687 22.975 10.9687 29.95C10.9687 43.1563 17.5375 54.8125 27.5125 61.6375C21.4312 61.45 15.6812 59.7188 10.6625 56.8875V57.3563C10.6625 75.8063 23.4813 91.2 40.5 94.6875C37.3812 95.5813 34.0938 96.0313 30.7 96.0313C28.3063 96.0313 25.9688 95.8 23.6938 95.3563C28.4312 110.481 42.1562 121.494 58.4313 121.788C45.7062 132.006 29.6625 138.1 12.25 138.1C9.25 138.1 6.28125 137.925 3.375 137.575C19.8312 148.363 39.3875 154.669 60.3813 154.669C128.787 154.669 166.175 96.6563 166.175 46.3375C166.175 44.6813 166.144 43.025 166.081 41.4C173.35 36.0313 179.663 29.325 184.625 21.6875Z" fill="white"/>
<path d="M178.134 10.2087C171.034 14.6212 164.39 23.5525 155.99 25.2337C149.227 17.8337 139.552 13.215 128.852 13.215C111.34 13.215 96.49 25.79 95.965 46.2837C95.8713 49.89 93.0775 52.865 89.4775 53.0712C73.3025 53.9837 31.8275 49.6712 11.9212 21.6525C11.3337 24.3275 10.9525 27.09 10.9525 29.9525C10.9525 43.1587 17.5212 54.815 27.4963 61.64C21.415 61.4525 15.665 59.7212 10.6462 56.89V57.3587C10.6462 75.8087 23.465 91.2025 40.4837 94.69C37.365 95.5837 34.0775 96.0338 30.6837 96.0338C28.29 96.0338 25.9525 95.8025 23.6775 95.3587C28.415 110.484 42.14 121.496 58.415 121.79C45.69 132.009 29.6462 138.102 12.2337 138.102C9.23375 138.102 6.265 137.927 3.35875 137.577C19.815 148.365 39.3713 154.671 60.365 154.671C128.771 154.671 166.159 96.6587 166.159 46.34C166.159 44.6837 166.127 43.0275 166.065 41.4025C173.334 36.0337 179.64 29.3337 184.609 21.6962C177.952 24.7275 170.777 26.7775 163.259 27.69C169.871 23.64 175.015 17.4837 178.134 10.2087Z" fill="#80D8FF"/>
<path d="M60.3813 157.796C39.5438 157.796 19.2375 151.709 1.6625 140.19C0.449998 139.396 -0.0562518 137.865 0.437498 136.509C0.937498 135.146 2.28125 134.309 3.75 134.477C6.50625 134.815 9.36875 134.984 12.25 134.984C23.5375 134.984 34.3375 132.378 44.35 127.234C46.325 126.221 48.2625 125.109 50.1437 123.909C36.4437 120.727 25.1187 110.371 20.7125 96.3025C20.1937 94.6525 21.1125 92.9025 22.7625 92.39C24.4062 91.865 26.1625 92.79 26.675 94.44C31.1312 108.677 43.9188 118.415 58.4875 118.677C59.8063 118.702 60.9625 119.546 61.3875 120.79C61.8125 122.034 61.4125 123.409 60.3875 124.234C56.2875 127.527 51.85 130.409 47.2062 132.796C37.3812 137.84 26.8687 140.646 15.8937 141.153C29.7375 147.99 44.9 151.559 60.3813 151.559C124.65 151.559 163.05 98.065 163.05 46.3525C163.05 44.74 163.019 43.1213 162.963 41.5338C162.925 40.5025 163.394 39.5213 164.231 38.9025C171.237 33.7275 177.225 27.365 182.013 20.0088C182.95 18.565 184.894 18.14 186.331 19.0963C187.775 20.0338 188.188 21.9713 187.244 23.415C182.35 30.94 176.306 37.5025 169.256 42.94C169.281 44.0713 169.3 45.215 169.3 46.3525C169.3 101.121 128.563 157.796 60.3813 157.796Z" fill="#455A64"/>
<path d="M40.5175 97.7913C40.3113 97.7913 40.0988 97.7725 39.8863 97.7288C21.1488 93.8913 7.54875 76.8975 7.54875 57.335C7.54875 55.61 8.94875 53.9725 10.6738 53.9725C12.3988 53.9725 13.7988 55.135 13.7988 56.86V57.3288C13.7988 73.9413 25.2988 88.3538 41.1425 91.5975C42.8363 91.9413 43.9238 93.5975 43.5738 95.285C43.2738 96.7725 41.9738 97.7913 40.5175 97.7913Z" fill="#455A64"/>
<path d="M27.5037 64.785C26.8975 64.785 26.2787 64.61 25.7412 64.2413C14.5287 56.5663 7.835 43.7538 7.835 29.9725C7.835 22.7038 9.71625 15.5413 13.2725 9.26625C13.785 8.36 14.71 7.77251 15.7475 7.69126C16.8162 7.61001 17.7912 8.0475 18.435 8.86C36.785 31.9163 63.8913 45.9913 92.8037 47.4788C94.5225 47.5663 95.8538 49.0413 95.7663 50.76C95.6788 52.4788 94.135 53.7788 92.485 53.7225C63.4038 52.2225 36.0475 38.7413 16.6975 16.5288C14.985 20.7725 14.0912 25.3413 14.0912 29.9663C14.0912 41.685 19.7662 52.5663 29.2725 59.0788C30.6975 60.0538 31.06 61.9975 30.085 63.4225C29.4788 64.31 28.5037 64.785 27.5037 64.785Z" fill="#455A64"/>
<path d="M91.8 42.2363C91.725 42.2363 91.65 42.2363 91.575 42.23C89.8562 42.1113 88.5563 40.6175 88.6813 38.8925C90.1938 17.4738 107.844 0.692505 128.869 0.692505C139.413 0.692505 149.581 4.94251 157.062 12.4175C164.419 10.755 171.463 7.905 178.019 3.93625C179.131 3.2675 180.544 3.34875 181.562 4.14875C182.587 4.94875 183.006 6.29876 182.619 7.53625C179.644 17.0613 173.356 25.155 164.919 30.3238C163.45 31.2238 161.519 30.7613 160.619 29.2925C159.712 27.8238 160.181 25.8988 161.65 24.9925C166.312 22.13 170.2 18.2238 173.044 13.605C167.775 15.9863 162.281 17.7613 156.619 18.8925C155.556 19.1113 154.437 18.7488 153.7 17.9363C147.312 10.9425 138.256 6.93625 128.869 6.93625C111.113 6.93625 96.1937 21.1613 94.9125 39.3238C94.8 40.98 93.4313 42.2363 91.8 42.2363Z" fill="#455A64"/>
</svg>
