<svg width="188" height="182" viewBox="0 0 188 182" fill="none" xmlns="http://www.w3.org/2000/svg">
<path d="M184.625 125.497V9.8725C184.625 6.41625 181.831 3.6225 178.375 3.6225H9.625C6.16875 3.6225 3.375 6.41625 3.375 9.8725V125.497H184.625Z" fill="white"/>
<path d="M6.50003 25.495V9.87C6.50003 6.41375 6.16878 6.745 9.62503 6.745H178.375C181.831 6.745 181.5 6.41375 181.5 9.87V25.495H6.50003Z" fill="#A9E4FF"/>
<path d="M181.5 6.755H6.5V13.005H181.5V6.755Z" fill="white"/>
<path d="M40.88 19.255C42.6059 19.255 44.005 17.8559 44.005 16.13C44.005 14.4041 42.6059 13.005 40.88 13.005C39.1541 13.005 37.755 14.4041 37.755 16.13C37.755 17.8559 39.1541 19.255 40.88 19.255Z" fill="#455A64"/>
<path d="M28.38 19.255C30.1059 19.255 31.505 17.8559 31.505 16.13C31.505 14.4041 30.1059 13.005 28.38 13.005C26.6541 13.005 25.255 14.4041 25.255 16.13C25.255 17.8559 26.6541 19.255 28.38 19.255Z" fill="#455A64"/>
<path d="M15.88 19.255C17.6059 19.255 19.005 17.8559 19.005 16.13C19.005 14.4041 17.6059 13.005 15.88 13.005C14.1541 13.005 12.755 14.4041 12.755 16.13C12.755 17.8559 14.1541 19.255 15.88 19.255Z" fill="#455A64"/>
<path d="M181.5 31.755H6.5V38.005H181.5V31.755Z" fill="white"/>
<path d="M184.625 31.755H3.375C1.65 31.755 0.25 30.355 0.25 28.63C0.25 26.905 1.65 25.505 3.375 25.505H184.625C186.35 25.505 187.75 26.905 187.75 28.63C187.75 30.355 186.35 31.755 184.625 31.755Z" fill="#455A64"/>
<path d="M3.375 125.5C1.65 125.5 0.25 124.1 0.25 122.375V9.875C0.25 4.70625 4.45625 0.5 9.625 0.5H178.375C183.544 0.5 187.75 4.70625 187.75 9.875V66.125C187.75 67.85 186.35 69.25 184.625 69.25C182.9 69.25 181.5 67.85 181.5 66.125V9.875C181.5 8.15625 180.1 6.75 178.375 6.75H9.625C7.9 6.75 6.5 8.15625 6.5 9.875V122.375C6.5 124.1 5.1 125.5 3.375 125.5Z" fill="#455A64"/>
<path d="M181.5 38H6.5V113H181.5V38Z" fill="#F2F4F5"/>
<path d="M78.3725 147.375V166.125C78.3725 173.025 72.7725 178.625 65.8725 178.625H59.6225H131.497H122.122C115.222 178.625 109.622 173.025 109.622 166.125V147.375H78.3725Z" fill="white"/>
<path d="M109.625 150.505H78.375V156.755H109.625V150.505Z" fill="#ECEFF1"/>
<path d="M131.497 181.75H59.6225C57.8975 181.75 56.4975 180.35 56.4975 178.625C56.4975 176.9 57.8975 175.5 59.6225 175.5H65.8725C71.0412 175.5 75.2475 171.294 75.2475 166.125V159.875C75.2475 158.15 76.6475 156.75 78.3725 156.75C80.0975 156.75 81.4975 158.15 81.4975 159.875V166.125C81.4975 169.644 80.3287 172.888 78.3662 175.5H109.629C107.666 172.888 106.497 169.644 106.497 166.125V147.375C106.497 145.65 107.897 144.25 109.622 144.25C111.347 144.25 112.747 145.65 112.747 147.375V166.125C112.747 171.294 116.954 175.5 122.122 175.5H131.497C133.222 175.5 134.622 176.9 134.622 178.625C134.622 180.35 133.222 181.75 131.497 181.75Z" fill="#455A64"/>
<path d="M178.375 147.38H9.625C6.16875 147.38 3.375 144.586 3.375 141.13V122.38H184.625V141.13C184.625 144.586 181.831 147.38 178.375 147.38Z" fill="white"/>
<path d="M178.375 147.372H9.625C6.16875 147.372 3.375 144.579 3.375 141.122V131.747H184.625V141.122C184.625 144.579 181.831 147.372 178.375 147.372Z" fill="#ECEFF1"/>
<path d="M109.625 150.505H9.625C4.45625 150.505 0.25 146.299 0.25 141.13V122.38C0.25 120.655 1.65 119.255 3.375 119.255H90.875C92.6 119.255 94 120.655 94 122.38C94 124.105 92.6 125.505 90.875 125.505H6.5V141.13C6.5 142.849 7.9 144.255 9.625 144.255H109.625C111.35 144.255 112.75 145.655 112.75 147.38C112.75 149.105 111.35 150.505 109.625 150.505Z" fill="#455A64"/>
<path d="M109.625 75.505H103.375C101.65 75.505 100.25 74.105 100.25 72.38C100.25 70.655 101.65 69.255 103.375 69.255H109.625C111.35 69.255 112.75 70.655 112.75 72.38C112.75 74.105 111.35 75.505 109.625 75.505Z" fill="#455A64"/>
<path d="M165.88 50.505H103.38C101.655 50.505 100.255 49.105 100.255 47.38C100.255 45.655 101.655 44.255 103.38 44.255H165.88C167.605 44.255 169.005 45.655 169.005 47.38C169.005 49.105 167.605 50.505 165.88 50.505Z" fill="#455A64"/>
<path d="M165.88 63.005H103.38C101.655 63.005 100.255 61.605 100.255 59.88C100.255 58.155 101.655 56.755 103.38 56.755H165.88C167.605 56.755 169.005 58.155 169.005 59.88C169.005 61.605 167.605 63.005 165.88 63.005Z" fill="#455A64"/>
<path d="M40.875 75.505H22.125C20.4 75.505 19 74.105 19 72.38C19 70.655 20.4 69.255 22.125 69.255H40.875C42.6 69.255 44 70.655 44 72.38C44 74.105 42.6 75.505 40.875 75.505Z" fill="#455A64"/>
<path d="M84.63 50.505H22.13C20.405 50.505 19.005 49.105 19.005 47.38C19.005 45.655 20.405 44.255 22.13 44.255H84.63C86.355 44.255 87.755 45.655 87.755 47.38C87.755 49.105 86.355 50.505 84.63 50.505Z" fill="#455A64"/>
<path d="M84.63 63.005H22.13C20.405 63.005 19.005 61.605 19.005 59.88C19.005 58.155 20.405 56.755 22.13 56.755H84.63C86.355 56.755 87.755 58.155 87.755 59.88C87.755 61.605 86.355 63.005 84.63 63.005Z" fill="#455A64"/>
<path d="M169.005 81.755H100.255V113.005H169.005V81.755Z" fill="#80D8FF"/>
<path d="M87.755 81.755H19.005V113.005H87.755V81.755Z" fill="#80D8FF"/>
<path d="M144 153.625C166.437 153.625 184.625 135.437 184.625 113C184.625 90.5634 166.437 72.375 144 72.375C121.563 72.375 103.375 90.5634 103.375 113C103.375 135.437 121.563 153.625 144 153.625Z" fill="white"/>
<path d="M150.255 78.63C127.824 78.63 109.63 96.8238 109.63 119.255C109.63 128.88 112.993 137.705 118.593 144.661C125.549 150.261 134.38 153.63 144.005 153.63C166.443 153.63 184.63 135.443 184.63 113.005C184.63 103.38 181.268 94.555 175.668 87.5925C168.711 81.9988 159.88 78.63 150.255 78.63Z" fill="#65F0CD"/>
<path d="M144 156.75C119.875 156.75 100.25 137.119 100.25 113C100.25 88.8813 119.875 69.25 144 69.25C152.45 69.25 160.644 71.6625 167.7 76.2187C169.15 77.1562 169.562 79.0875 168.625 80.5375C167.688 81.975 165.763 82.4125 164.306 81.4625C158.269 77.5625 151.244 75.5 144 75.5C123.319 75.5 106.5 92.3188 106.5 113C106.5 133.681 123.319 150.5 144 150.5C164.681 150.5 181.5 133.681 181.5 113C181.5 108.987 180.869 105.044 179.631 101.269C179.094 99.625 179.988 97.8625 181.625 97.325C183.263 96.775 185.031 97.6812 185.569 99.3125C187.012 103.725 187.75 108.325 187.75 113C187.75 137.119 168.125 156.75 144 156.75Z" fill="#455A64"/>
<path d="M140.878 129.839C140.853 129.839 140.828 129.839 140.803 129.839C139.896 129.814 139.053 129.407 138.471 128.714L122.846 109.964C121.746 108.632 121.928 106.664 123.246 105.557C124.578 104.457 126.54 104.639 127.653 105.958L140.984 121.964L179.828 79.0575C181.003 77.7825 182.978 77.7075 184.24 78.8638C185.509 80.0325 185.596 82.0075 184.428 83.2825L143.178 128.826C142.584 129.476 141.759 129.839 140.878 129.839Z" fill="#455A64"/>
</svg>
