<svg width="188" height="138" viewBox="0 0 188 138" fill="none" xmlns="http://www.w3.org/2000/svg">
<path d="M182.812 31.6875C182.812 31.6875 181.037 18.825 175.606 13.1625C168.712 5.73125 160.988 5.69375 157.45 5.2625C132.081 3.375 94.0375 3.375 94.0375 3.375H93.9625C93.9625 3.375 55.9188 3.375 30.55 5.2625C27.0063 5.69375 19.2812 5.725 12.3875 13.1625C6.95 18.825 5.1875 31.6875 5.1875 31.6875C5.1875 31.6875 3.375 46.7875 3.375 61.8875V76.05C3.375 91.15 5.1875 106.25 5.1875 106.25C5.1875 106.25 6.95625 119.113 12.3875 124.769C19.2875 132.2 28.3438 131.975 32.375 132.75C46.875 134.181 94 134.625 94 134.625C94 134.625 132.081 134.569 157.45 132.675C160.988 132.238 168.719 132.2 175.606 124.763C181.044 119.106 182.812 106.244 182.812 106.244C182.812 106.244 184.625 91.1438 184.625 76.0438V61.8812C184.625 46.7875 182.812 31.6875 182.812 31.6875Z" fill="white"/>
<path d="M179.974 20.765C173.605 15.1587 166.924 15.0338 163.699 14.64C138.336 12.7525 100.293 12.7525 100.293 12.7525H100.217C100.217 12.7525 62.1738 12.7525 36.805 14.64C33.2613 15.0713 25.5363 15.1025 18.6425 22.54C13.205 28.2025 11.4425 41.065 11.4425 41.065C11.4425 41.065 9.63 56.165 9.63 71.265V85.4275C9.63 100.528 11.4425 115.627 11.4425 115.627C11.4425 115.627 12.2175 121.096 14.2488 126.465C20.8363 132.103 28.6925 132.04 32.38 132.753C46.88 134.184 94.005 134.628 94.005 134.628C94.005 134.628 132.086 134.571 157.455 132.677C160.993 132.24 168.724 132.203 175.611 124.765C181.049 119.109 182.818 106.246 182.818 106.246C182.818 106.246 184.63 91.1463 184.63 76.0463V61.8838C184.63 46.7838 182.818 31.6775 182.818 31.6775C182.818 31.6775 182.03 26.1713 179.974 20.765Z" fill="#FF8A80"/>
<path d="M94 137.75C93.9938 137.75 93.9812 137.75 93.9688 137.75C92.0375 137.731 46.5438 137.288 32.0688 135.863C31.1562 135.7 30.3875 135.606 29.525 135.5C24.6875 134.9 16.5938 133.9 10.0938 126.894C4.0625 120.619 2.1625 107.244 2.0875 106.675C2.00625 105.994 0.25 91.1562 0.25 76.05V61.8875C0.25 46.775 2.00625 31.9375 2.08125 31.3125C2.16875 30.6938 4.0625 17.3187 10.1313 11C17.1188 3.46875 24.9 2.69375 29.0812 2.275L30.175 2.15625C55.5063 0.268749 93.5813 0.25 93.9625 0.25C94.4188 0.25 132.494 0.26875 157.681 2.14375L158.919 2.275C163.1 2.6875 170.881 3.4625 177.9 11.0375C183.931 17.3187 185.837 30.6938 185.912 31.2563C185.994 31.9375 187.75 46.775 187.75 61.8875V76.05C187.75 91.1625 185.994 106 185.919 106.625C185.831 107.244 183.931 120.619 177.856 126.938C170.881 134.469 163.106 135.25 158.925 135.669L157.825 135.788C132.494 137.675 94.3875 137.75 94 137.75ZM94.0375 6.5C93.5875 6.5 55.7375 6.51875 30.7813 8.375L29.7 8.49375C26.1062 8.85 20.0938 9.45 14.6812 15.2875C10.7625 19.375 8.73125 28.8125 8.28125 32.1125C8.26875 32.2062 6.5 47.1625 6.5 61.8875V76.05C6.5 90.7875 8.26875 105.731 8.2875 105.875C8.7375 109.125 10.775 118.575 14.6375 122.6C19.6187 127.969 25.7875 128.731 30.2938 129.294C31.3188 129.425 32.225 129.537 32.9688 129.681C46.7812 131.031 92.9125 131.488 94.0125 131.5C95.0125 131.5 132.469 131.406 157.219 129.562L158.306 129.444C161.9 129.081 167.913 128.481 173.319 122.644C177.238 118.562 179.269 109.119 179.725 105.825C179.731 105.725 181.5 90.775 181.5 76.05V61.8875C181.5 47.1625 179.731 32.2062 179.713 32.0562C179.262 28.8062 177.219 19.3563 173.35 15.325C167.906 9.45 161.894 8.85 158.3 8.49375L157.069 8.3625C132.262 6.51875 94.4125 6.5 94.0375 6.5Z" fill="#455A64"/>
<path d="M72.125 90.88V40.88L128.375 65.88L72.125 90.88Z" fill="white"/>
<path d="M72.125 93.995C71.5312 93.995 70.9375 93.8263 70.425 93.4888C69.5312 92.9138 69 91.9263 69 90.87V53.5638C69 51.8388 70.4 50.4388 72.125 50.4388C73.85 50.4388 75.25 51.8388 75.25 53.5638V86.0575L120.681 65.87L70.8562 43.7263C69.2812 43.0263 68.5687 41.1763 69.2687 39.6013C69.9687 38.0263 71.8187 37.3138 73.3937 38.0138L129.644 63.0138C130.775 63.52 131.5 64.6325 131.5 65.87C131.5 67.1075 130.775 68.22 129.644 68.7263L73.3937 93.7263C72.9875 93.9075 72.5562 93.995 72.125 93.995Z" fill="#455A64"/>
</svg>
