<svg width="667" height="394" viewBox="0 0 667 394" fill="none" xmlns="http://www.w3.org/2000/svg">
<rect width="667" height="394" fill="#FFF1F1"/>
<rect x="287.5" y="103.5" width="56" height="26" fill="#B8E1FF" stroke="black"/>
<rect x="270.5" y="162.5" width="93" height="26" fill="#B8E1FF" stroke="black"/>
<path d="M281.408 100.443C282.206 100.218 282.669 99.3886 282.443 98.5915L278.767 85.6017C278.541 84.8046 277.712 84.3413 276.915 84.5669C276.118 84.7925 275.655 85.6216 275.88 86.4187L279.148 97.9652L267.602 101.233C266.805 101.459 266.341 102.288 266.567 103.085C266.793 103.882 267.622 104.345 268.419 104.12L281.408 100.443ZM178.268 43.3094L280.268 100.309L281.732 97.6906L179.732 40.6906L178.268 43.3094Z" fill="black"/>
<path d="M305.415 121H304.307L307.511 112.273H308.602L311.807 121H310.699L308.091 113.653H308.023L305.415 121ZM305.824 117.591H310.29V118.528H305.824V117.591ZM313.03 123.455V114.455H314.001V115.494H314.121C314.195 115.381 314.297 115.236 314.428 115.06C314.561 114.881 314.751 114.722 314.999 114.582C315.249 114.44 315.587 114.369 316.013 114.369C316.564 114.369 317.05 114.507 317.47 114.783C317.891 115.058 318.219 115.449 318.455 115.955C318.69 116.46 318.808 117.057 318.808 117.744C318.808 118.438 318.69 119.038 318.455 119.547C318.219 120.053 317.892 120.445 317.474 120.723C317.057 120.999 316.575 121.136 316.03 121.136C315.609 121.136 315.273 121.067 315.02 120.928C314.767 120.786 314.572 120.625 314.436 120.446C314.3 120.264 314.195 120.114 314.121 119.994H314.036V123.455H313.03ZM314.018 117.727C314.018 118.222 314.091 118.658 314.236 119.036C314.381 119.411 314.592 119.705 314.871 119.918C315.149 120.128 315.49 120.233 315.893 120.233C316.314 120.233 316.665 120.122 316.946 119.901C317.23 119.676 317.443 119.375 317.585 118.997C317.73 118.616 317.803 118.193 317.803 117.727C317.803 117.267 317.732 116.852 317.589 116.483C317.45 116.111 317.239 115.817 316.955 115.601C316.673 115.382 316.32 115.273 315.893 115.273C315.484 115.273 315.141 115.376 314.862 115.584C314.584 115.788 314.374 116.075 314.232 116.445C314.089 116.811 314.018 117.239 314.018 117.727ZM320.342 123.455V114.455H321.314V115.494H321.433C321.507 115.381 321.609 115.236 321.74 115.06C321.874 114.881 322.064 114.722 322.311 114.582C322.561 114.44 322.899 114.369 323.325 114.369C323.876 114.369 324.362 114.507 324.783 114.783C325.203 115.058 325.531 115.449 325.767 115.955C326.003 116.46 326.121 117.057 326.121 117.744C326.121 118.438 326.003 119.038 325.767 119.547C325.531 120.053 325.205 120.445 324.787 120.723C324.369 120.999 323.888 121.136 323.342 121.136C322.922 121.136 322.585 121.067 322.332 120.928C322.08 120.786 321.885 120.625 321.749 120.446C321.612 120.264 321.507 120.114 321.433 119.994H321.348V123.455H320.342ZM321.331 117.727C321.331 118.222 321.403 118.658 321.548 119.036C321.693 119.411 321.905 119.705 322.183 119.918C322.462 120.128 322.803 120.233 323.206 120.233C323.626 120.233 323.977 120.122 324.259 119.901C324.543 119.676 324.756 119.375 324.898 118.997C325.043 118.616 325.115 118.193 325.115 117.727C325.115 117.267 325.044 116.852 324.902 116.483C324.763 116.111 324.551 115.817 324.267 115.601C323.986 115.382 323.632 115.273 323.206 115.273C322.797 115.273 322.453 115.376 322.175 115.584C321.896 115.788 321.686 116.075 321.544 116.445C321.402 116.811 321.331 117.239 321.331 117.727Z" fill="black"/>
<rect x="89.5" y="12.5" width="85" height="26" fill="#E9FFEA" stroke="#4AB455"/>
<path d="M108.114 21.2727V30H107.057V21.2727H108.114ZM117.153 21.2727V30H116.13L111.375 23.1477H111.289V30H110.233V21.2727H111.255L116.028 28.142H116.113V21.2727H117.153ZM121.961 30H119.268V21.2727H122.08C122.927 21.2727 123.651 21.4474 124.254 21.7969C124.856 22.1435 125.317 22.642 125.638 23.2926C125.96 23.9403 126.12 24.7159 126.12 25.6193C126.12 26.5284 125.958 27.3111 125.634 27.9673C125.31 28.6207 124.839 29.1236 124.219 29.4759C123.6 29.8253 122.847 30 121.961 30ZM120.325 29.0625H121.893C122.614 29.0625 123.212 28.9233 123.687 28.6449C124.161 28.3665 124.515 27.9702 124.748 27.456C124.981 26.9418 125.097 26.3295 125.097 25.6193C125.097 24.9148 124.982 24.3082 124.752 23.7997C124.522 23.2884 124.178 22.8963 123.721 22.6236C123.263 22.348 122.694 22.2102 122.012 22.2102H120.325V29.0625ZM127.893 30V21.2727H133.16V22.2102H128.95V25.1591H132.887V26.0966H128.95V29.0625H133.228V30H127.893ZM135.576 21.2727L137.826 24.9034H137.894L140.144 21.2727H141.388L138.644 25.6364L141.388 30H140.144L137.894 26.4375H137.826L135.576 30H134.332L137.144 25.6364L134.332 21.2727H135.576ZM143.36 30.0682C143.15 30.0682 142.97 29.9929 142.819 29.8423C142.669 29.6918 142.593 29.5114 142.593 29.3011C142.593 29.0909 142.669 28.9105 142.819 28.7599C142.97 28.6094 143.15 28.5341 143.36 28.5341C143.571 28.5341 143.751 28.6094 143.902 28.7599C144.052 28.9105 144.127 29.0909 144.127 29.3011C144.127 29.4403 144.092 29.5682 144.021 29.6847C143.953 29.8011 143.86 29.8949 143.744 29.9659C143.63 30.0341 143.502 30.0682 143.36 30.0682ZM149.409 21.2727H150.466V27.5114C150.466 28.0682 150.364 28.5412 150.159 28.9304C149.955 29.3196 149.667 29.6151 149.294 29.8168C148.922 30.0185 148.483 30.1193 147.978 30.1193C147.5 30.1193 147.076 30.0327 146.703 29.8594C146.331 29.6832 146.039 29.4332 145.826 29.1094C145.613 28.7855 145.506 28.4006 145.506 27.9545H146.546C146.546 28.2017 146.607 28.4176 146.729 28.6023C146.854 28.7841 147.025 28.9261 147.24 29.0284C147.456 29.1307 147.702 29.1818 147.978 29.1818C148.282 29.1818 148.54 29.1179 148.753 28.9901C148.966 28.8622 149.128 28.6747 149.239 28.4276C149.353 28.1776 149.409 27.8722 149.409 27.5114V21.2727ZM157.357 23.4545C157.306 23.0227 157.098 22.6875 156.735 22.4489C156.371 22.2102 155.925 22.0909 155.397 22.0909C155.01 22.0909 154.672 22.1534 154.382 22.2784C154.096 22.4034 153.871 22.5753 153.709 22.794C153.55 23.0128 153.471 23.2614 153.471 23.5398C153.471 23.7727 153.526 23.973 153.637 24.1406C153.75 24.3054 153.895 24.4432 154.071 24.554C154.248 24.6619 154.432 24.7514 154.625 24.8224C154.819 24.8906 154.996 24.946 155.158 24.9886L156.044 25.2273C156.272 25.2869 156.525 25.3693 156.803 25.4744C157.084 25.5795 157.353 25.723 157.608 25.9048C157.867 26.0838 158.08 26.3139 158.248 26.5952C158.415 26.8764 158.499 27.2216 158.499 27.6307C158.499 28.1023 158.375 28.5284 158.128 28.9091C157.884 29.2898 157.526 29.5923 157.054 29.8168C156.586 30.0412 156.016 30.1534 155.346 30.1534C154.721 30.1534 154.179 30.0526 153.722 29.8509C153.267 29.6491 152.909 29.3679 152.648 29.0071C152.39 28.6463 152.243 28.2273 152.209 27.75H153.3C153.328 28.0795 153.439 28.3523 153.632 28.5682C153.828 28.7812 154.076 28.9403 154.374 29.0455C154.675 29.1477 154.999 29.1989 155.346 29.1989C155.749 29.1989 156.111 29.1335 156.432 29.0028C156.753 28.8693 157.007 28.6847 157.195 28.4489C157.382 28.2102 157.476 27.9318 157.476 27.6136C157.476 27.3239 157.395 27.0881 157.233 26.9062C157.071 26.7244 156.858 26.5767 156.594 26.4631C156.33 26.3494 156.044 26.25 155.738 26.1648L154.664 25.858C153.982 25.6619 153.442 25.3821 153.044 25.0185C152.647 24.6548 152.448 24.179 152.448 23.5909C152.448 23.1023 152.58 22.6761 152.844 22.3125C153.111 21.946 153.469 21.6619 153.918 21.4602C154.37 21.2557 154.874 21.1534 155.431 21.1534C155.993 21.1534 156.493 21.2543 156.931 21.456C157.368 21.6548 157.715 21.9276 157.971 22.2741C158.229 22.6207 158.365 23.0142 158.38 23.4545H157.357Z" fill="black"/>
<rect x="209.5" y="43.5" width="60" height="26" fill="#D2E9D3" stroke="#37863F"/>
<path d="M226.83 54.4545C226.778 54.0227 226.571 53.6875 226.207 53.4489C225.844 53.2102 225.398 53.0909 224.869 53.0909C224.483 53.0909 224.145 53.1534 223.855 53.2784C223.568 53.4034 223.344 53.5753 223.182 53.794C223.023 54.0128 222.943 54.2614 222.943 54.5398C222.943 54.7727 222.999 54.973 223.109 55.1406C223.223 55.3054 223.368 55.4432 223.544 55.554C223.72 55.6619 223.905 55.7514 224.098 55.8224C224.291 55.8906 224.469 55.946 224.631 55.9886L225.517 56.2273C225.744 56.2869 225.997 56.3693 226.276 56.4744C226.557 56.5795 226.825 56.723 227.081 56.9048C227.339 57.0838 227.553 57.3139 227.72 57.5952C227.888 57.8764 227.972 58.2216 227.972 58.6307C227.972 59.1023 227.848 59.5284 227.601 59.9091C227.357 60.2898 226.999 60.5923 226.527 60.8168C226.058 61.0412 225.489 61.1534 224.818 61.1534C224.193 61.1534 223.652 61.0526 223.195 60.8509C222.74 60.6491 222.382 60.3679 222.121 60.0071C221.862 59.6463 221.716 59.2273 221.682 58.75H222.773C222.801 59.0795 222.912 59.3523 223.105 59.5682C223.301 59.7812 223.548 59.9403 223.847 60.0455C224.148 60.1477 224.472 60.1989 224.818 60.1989C225.222 60.1989 225.584 60.1335 225.905 60.0028C226.226 59.8693 226.48 59.6847 226.668 59.4489C226.855 59.2102 226.949 58.9318 226.949 58.6136C226.949 58.3239 226.868 58.0881 226.706 57.9062C226.544 57.7244 226.331 57.5767 226.067 57.4631C225.803 57.3494 225.517 57.25 225.21 57.1648L224.136 56.858C223.455 56.6619 222.915 56.3821 222.517 56.0185C222.119 55.6548 221.92 55.179 221.92 54.5909C221.92 54.1023 222.053 53.6761 222.317 53.3125C222.584 52.946 222.942 52.6619 223.391 52.4602C223.842 52.2557 224.347 52.1534 224.903 52.1534C225.466 52.1534 225.966 52.2543 226.403 52.456C226.841 52.6548 227.188 52.9276 227.443 53.2741C227.702 53.6207 227.838 54.0142 227.852 54.4545H226.83ZM229.232 53.2102V52.2727H235.777V53.2102H233.033V61H231.976V53.2102H229.232ZM236.747 61H235.639L238.843 52.2727H239.934L243.139 61H242.031L239.423 53.6534H239.355L236.747 61ZM237.156 57.5909H241.622V58.5284H237.156V57.5909ZM243.001 53.2102V52.2727H249.547V53.2102H246.803V61H245.746V53.2102H243.001ZM251.178 61V52.2727H256.445V53.2102H252.235V56.1591H256.172V57.0966H252.235V60.0625H256.513V61H251.178Z" fill="black"/>
<rect x="94.5" y="212.5" width="56" height="26" fill="#B8E1FF" stroke="black"/>
<path d="M105.75 230H103.057V221.273H105.869C106.716 221.273 107.44 221.447 108.043 221.797C108.645 222.143 109.107 222.642 109.428 223.293C109.749 223.94 109.909 224.716 109.909 225.619C109.909 226.528 109.747 227.311 109.423 227.967C109.099 228.621 108.628 229.124 108.009 229.476C107.389 229.825 106.636 230 105.75 230ZM104.114 229.062H105.682C106.403 229.062 107.001 228.923 107.476 228.645C107.95 228.366 108.304 227.97 108.537 227.456C108.77 226.942 108.886 226.33 108.886 225.619C108.886 224.915 108.771 224.308 108.541 223.8C108.311 223.288 107.967 222.896 107.51 222.624C107.053 222.348 106.483 222.21 105.801 222.21H104.114V229.062ZM111.545 230V223.455H112.551V230H111.545ZM112.057 222.364C111.861 222.364 111.692 222.297 111.55 222.163C111.411 222.03 111.341 221.869 111.341 221.682C111.341 221.494 111.411 221.334 111.55 221.2C111.692 221.067 111.861 221 112.057 221C112.253 221 112.42 221.067 112.56 221.2C112.702 221.334 112.773 221.494 112.773 221.682C112.773 221.869 112.702 222.03 112.56 222.163C112.42 222.297 112.253 222.364 112.057 222.364ZM116.319 230.153C115.904 230.153 115.528 230.075 115.19 229.919C114.852 229.76 114.583 229.531 114.385 229.233C114.186 228.932 114.086 228.568 114.086 228.142C114.086 227.767 114.16 227.463 114.308 227.23C114.456 226.994 114.653 226.81 114.9 226.676C115.147 226.543 115.42 226.443 115.718 226.378C116.02 226.31 116.322 226.256 116.626 226.216C117.024 226.165 117.346 226.126 117.593 226.101C117.843 226.072 118.025 226.026 118.139 225.96C118.255 225.895 118.314 225.781 118.314 225.619V225.585C118.314 225.165 118.199 224.838 117.968 224.605C117.741 224.372 117.396 224.256 116.933 224.256C116.453 224.256 116.076 224.361 115.804 224.571C115.531 224.781 115.339 225.006 115.228 225.244L114.274 224.903C114.444 224.506 114.672 224.196 114.956 223.974C115.243 223.75 115.555 223.594 115.893 223.506C116.234 223.415 116.569 223.369 116.899 223.369C117.109 223.369 117.35 223.395 117.623 223.446C117.899 223.494 118.164 223.595 118.42 223.749C118.679 223.902 118.893 224.134 119.064 224.443C119.234 224.753 119.319 225.168 119.319 225.688V230H118.314V229.114H118.262C118.194 229.256 118.081 229.408 117.922 229.57C117.762 229.732 117.551 229.869 117.287 229.983C117.022 230.097 116.7 230.153 116.319 230.153ZM116.473 229.25C116.87 229.25 117.206 229.172 117.478 229.016C117.754 228.859 117.961 228.658 118.1 228.411C118.243 228.163 118.314 227.903 118.314 227.631V226.71C118.271 226.761 118.177 226.808 118.032 226.851C117.89 226.891 117.725 226.926 117.538 226.957C117.353 226.986 117.173 227.011 116.997 227.034C116.824 227.054 116.683 227.071 116.575 227.085C116.314 227.119 116.069 227.175 115.842 227.251C115.618 227.325 115.436 227.437 115.297 227.588C115.16 227.736 115.092 227.937 115.092 228.193C115.092 228.543 115.221 228.807 115.48 228.986C115.741 229.162 116.072 229.25 116.473 229.25ZM122.161 221.273V230H121.155V221.273H122.161ZM126.662 230.136C126.071 230.136 125.552 229.996 125.106 229.714C124.663 229.433 124.316 229.04 124.066 228.534C123.819 228.028 123.696 227.437 123.696 226.761C123.696 226.08 123.819 225.484 124.066 224.976C124.316 224.467 124.663 224.072 125.106 223.791C125.552 223.51 126.071 223.369 126.662 223.369C127.252 223.369 127.77 223.51 128.213 223.791C128.659 224.072 129.005 224.467 129.252 224.976C129.502 225.484 129.627 226.08 129.627 226.761C129.627 227.437 129.502 228.028 129.252 228.534C129.005 229.04 128.659 229.433 128.213 229.714C127.77 229.996 127.252 230.136 126.662 230.136ZM126.662 229.233C127.11 229.233 127.48 229.118 127.77 228.888C128.059 228.658 128.274 228.355 128.413 227.98C128.552 227.605 128.622 227.199 128.622 226.761C128.622 226.324 128.552 225.916 128.413 225.538C128.274 225.161 128.059 224.855 127.77 224.622C127.48 224.389 127.11 224.273 126.662 224.273C126.213 224.273 125.843 224.389 125.554 224.622C125.264 224.855 125.049 225.161 124.91 225.538C124.771 225.916 124.701 226.324 124.701 226.761C124.701 227.199 124.771 227.605 124.91 227.98C125.049 228.355 125.264 228.658 125.554 228.888C125.843 229.118 126.213 229.233 126.662 229.233ZM133.805 232.591C133.319 232.591 132.901 232.528 132.552 232.403C132.202 232.281 131.911 232.119 131.678 231.918C131.448 231.719 131.265 231.506 131.129 231.278L131.93 230.716C132.021 230.835 132.136 230.972 132.275 231.125C132.414 231.281 132.604 231.416 132.846 231.53C133.09 231.646 133.41 231.705 133.805 231.705C134.333 231.705 134.769 231.577 135.113 231.321C135.457 231.065 135.629 230.665 135.629 230.119V228.79H135.543C135.469 228.909 135.364 229.057 135.228 229.233C135.094 229.406 134.901 229.561 134.648 229.697C134.398 229.831 134.06 229.898 133.634 229.898C133.106 229.898 132.631 229.773 132.211 229.523C131.793 229.273 131.462 228.909 131.218 228.432C130.977 227.955 130.856 227.375 130.856 226.693C130.856 226.023 130.974 225.439 131.21 224.942C131.445 224.442 131.773 224.055 132.194 223.783C132.614 223.507 133.1 223.369 133.651 223.369C134.077 223.369 134.415 223.44 134.665 223.582C134.918 223.722 135.112 223.881 135.245 224.06C135.381 224.236 135.487 224.381 135.56 224.494H135.663V223.455H136.634V230.188C136.634 230.75 136.506 231.207 136.251 231.56C135.998 231.915 135.657 232.175 135.228 232.339C134.802 232.507 134.327 232.591 133.805 232.591ZM133.771 228.994C134.174 228.994 134.515 228.902 134.793 228.717C135.072 228.533 135.283 228.267 135.428 227.92C135.573 227.574 135.646 227.159 135.646 226.676C135.646 226.205 135.575 225.788 135.433 225.428C135.29 225.067 135.08 224.784 134.802 224.58C134.523 224.375 134.18 224.273 133.771 224.273C133.344 224.273 132.989 224.381 132.705 224.597C132.424 224.812 132.212 225.102 132.07 225.466C131.931 225.83 131.862 226.233 131.862 226.676C131.862 227.131 131.933 227.533 132.075 227.882C132.219 228.229 132.433 228.501 132.714 228.7C132.998 228.896 133.35 228.994 133.771 228.994ZM143.112 224.92L142.208 225.176C142.151 225.026 142.067 224.879 141.957 224.737C141.849 224.592 141.701 224.473 141.513 224.379C141.326 224.286 141.086 224.239 140.793 224.239C140.393 224.239 140.059 224.331 139.792 224.516C139.528 224.697 139.396 224.929 139.396 225.21C139.396 225.46 139.487 225.658 139.668 225.803C139.85 225.947 140.134 226.068 140.521 226.165L141.492 226.403C142.077 226.545 142.513 226.763 142.8 227.055C143.087 227.345 143.231 227.719 143.231 228.176C143.231 228.551 143.123 228.886 142.907 229.182C142.694 229.477 142.396 229.71 142.012 229.881C141.629 230.051 141.183 230.136 140.674 230.136C140.006 230.136 139.454 229.991 139.016 229.702C138.579 229.412 138.302 228.989 138.185 228.432L139.14 228.193C139.231 228.545 139.403 228.81 139.656 228.986C139.911 229.162 140.245 229.25 140.657 229.25C141.126 229.25 141.498 229.151 141.773 228.952C142.052 228.75 142.191 228.509 142.191 228.227C142.191 228 142.112 227.81 141.952 227.656C141.793 227.5 141.549 227.384 141.219 227.307L140.129 227.051C139.529 226.909 139.089 226.689 138.808 226.391C138.529 226.089 138.39 225.713 138.39 225.261C138.39 224.892 138.494 224.565 138.701 224.281C138.911 223.997 139.197 223.774 139.558 223.612C139.921 223.45 140.333 223.369 140.793 223.369C141.441 223.369 141.95 223.511 142.319 223.795C142.691 224.08 142.955 224.455 143.112 224.92Z" fill="black"/>
<rect x="122.5" y="280.5" width="66" height="26" fill="#B8E1FF" stroke="black"/>
<path d="M131.057 289.273H132.318L135.284 296.517H135.386L138.352 289.273H139.614V298H138.625V291.369H138.54L135.812 298H134.858L132.131 291.369H132.045V298H131.057V289.273ZM144.341 298.136C143.71 298.136 143.166 297.997 142.708 297.719C142.254 297.438 141.903 297.045 141.656 296.543C141.412 296.037 141.289 295.449 141.289 294.778C141.289 294.108 141.412 293.517 141.656 293.006C141.903 292.491 142.247 292.091 142.687 291.804C143.13 291.514 143.647 291.369 144.238 291.369C144.579 291.369 144.916 291.426 145.248 291.54C145.581 291.653 145.883 291.838 146.156 292.094C146.429 292.347 146.646 292.682 146.808 293.099C146.97 293.517 147.051 294.031 147.051 294.642V295.068H142.005V294.199H146.028C146.028 293.83 145.954 293.5 145.806 293.21C145.662 292.92 145.454 292.692 145.184 292.524C144.917 292.357 144.602 292.273 144.238 292.273C143.838 292.273 143.491 292.372 143.199 292.571C142.909 292.767 142.686 293.023 142.529 293.338C142.373 293.653 142.295 293.991 142.295 294.352V294.932C142.295 295.426 142.38 295.845 142.551 296.189C142.724 296.53 142.964 296.79 143.271 296.969C143.578 297.145 143.934 297.233 144.341 297.233C144.605 297.233 144.843 297.196 145.056 297.122C145.272 297.045 145.458 296.932 145.615 296.781C145.771 296.628 145.892 296.437 145.977 296.21L146.949 296.483C146.846 296.812 146.674 297.102 146.433 297.352C146.191 297.599 145.893 297.793 145.538 297.932C145.183 298.068 144.784 298.136 144.341 298.136ZM153.217 292.92L152.314 293.176C152.257 293.026 152.173 292.879 152.062 292.737C151.954 292.592 151.806 292.473 151.619 292.379C151.431 292.286 151.191 292.239 150.899 292.239C150.498 292.239 150.164 292.331 149.897 292.516C149.633 292.697 149.501 292.929 149.501 293.21C149.501 293.46 149.592 293.658 149.774 293.803C149.956 293.947 150.24 294.068 150.626 294.165L151.598 294.403C152.183 294.545 152.619 294.763 152.906 295.055C153.193 295.345 153.336 295.719 153.336 296.176C153.336 296.551 153.228 296.886 153.012 297.182C152.799 297.477 152.501 297.71 152.118 297.881C151.734 298.051 151.288 298.136 150.779 298.136C150.112 298.136 149.559 297.991 149.122 297.702C148.684 297.412 148.407 296.989 148.291 296.432L149.245 296.193C149.336 296.545 149.508 296.81 149.761 296.986C150.017 297.162 150.35 297.25 150.762 297.25C151.231 297.25 151.603 297.151 151.879 296.952C152.157 296.75 152.297 296.509 152.297 296.227C152.297 296 152.217 295.81 152.058 295.656C151.899 295.5 151.654 295.384 151.325 295.307L150.234 295.051C149.635 294.909 149.194 294.689 148.913 294.391C148.635 294.089 148.495 293.713 148.495 293.261C148.495 292.892 148.599 292.565 148.806 292.281C149.017 291.997 149.302 291.774 149.663 291.612C150.027 291.45 150.439 291.369 150.899 291.369C151.547 291.369 152.055 291.511 152.424 291.795C152.797 292.08 153.061 292.455 153.217 292.92ZM159.487 292.92L158.583 293.176C158.526 293.026 158.442 292.879 158.332 292.737C158.224 292.592 158.076 292.473 157.888 292.379C157.701 292.286 157.461 292.239 157.168 292.239C156.768 292.239 156.434 292.331 156.167 292.516C155.903 292.697 155.771 292.929 155.771 293.21C155.771 293.46 155.862 293.658 156.043 293.803C156.225 293.947 156.509 294.068 156.896 294.165L157.867 294.403C158.452 294.545 158.888 294.763 159.175 295.055C159.462 295.345 159.606 295.719 159.606 296.176C159.606 296.551 159.498 296.886 159.282 297.182C159.069 297.477 158.771 297.71 158.387 297.881C158.004 298.051 157.558 298.136 157.049 298.136C156.381 298.136 155.829 297.991 155.391 297.702C154.954 297.412 154.677 296.989 154.56 296.432L155.515 296.193C155.606 296.545 155.778 296.81 156.031 296.986C156.286 297.162 156.62 297.25 157.032 297.25C157.501 297.25 157.873 297.151 158.148 296.952C158.427 296.75 158.566 296.509 158.566 296.227C158.566 296 158.487 295.81 158.327 295.656C158.168 295.5 157.924 295.384 157.594 295.307L156.504 295.051C155.904 294.909 155.464 294.689 155.183 294.391C154.904 294.089 154.765 293.713 154.765 293.261C154.765 292.892 154.869 292.565 155.076 292.281C155.286 291.997 155.572 291.774 155.933 291.612C156.296 291.45 156.708 291.369 157.168 291.369C157.816 291.369 158.325 291.511 158.694 291.795C159.066 292.08 159.33 292.455 159.487 292.92ZM163.046 298.153C162.631 298.153 162.255 298.075 161.917 297.919C161.578 297.76 161.31 297.531 161.111 297.233C160.912 296.932 160.813 296.568 160.813 296.142C160.813 295.767 160.887 295.463 161.034 295.23C161.182 294.994 161.38 294.81 161.627 294.676C161.874 294.543 162.147 294.443 162.445 294.378C162.746 294.31 163.049 294.256 163.353 294.216C163.75 294.165 164.073 294.126 164.32 294.101C164.57 294.072 164.752 294.026 164.865 293.96C164.982 293.895 165.04 293.781 165.04 293.619V293.585C165.04 293.165 164.925 292.838 164.695 292.605C164.468 292.372 164.123 292.256 163.659 292.256C163.179 292.256 162.803 292.361 162.53 292.571C162.257 292.781 162.066 293.006 161.955 293.244L161 292.903C161.171 292.506 161.398 292.196 161.682 291.974C161.969 291.75 162.282 291.594 162.62 291.506C162.961 291.415 163.296 291.369 163.625 291.369C163.836 291.369 164.077 291.395 164.35 291.446C164.625 291.494 164.891 291.595 165.147 291.749C165.405 291.902 165.62 292.134 165.79 292.443C165.961 292.753 166.046 293.168 166.046 293.688V298H165.04V297.114H164.989C164.921 297.256 164.807 297.408 164.648 297.57C164.489 297.732 164.277 297.869 164.013 297.983C163.749 298.097 163.426 298.153 163.046 298.153ZM163.199 297.25C163.597 297.25 163.932 297.172 164.205 297.016C164.48 296.859 164.688 296.658 164.827 296.411C164.969 296.163 165.04 295.903 165.04 295.631V294.71C164.998 294.761 164.904 294.808 164.759 294.851C164.617 294.891 164.452 294.926 164.265 294.957C164.08 294.986 163.9 295.011 163.723 295.034C163.55 295.054 163.409 295.071 163.301 295.085C163.04 295.119 162.796 295.175 162.569 295.251C162.344 295.325 162.162 295.437 162.023 295.588C161.887 295.736 161.819 295.937 161.819 296.193C161.819 296.543 161.948 296.807 162.206 296.986C162.468 297.162 162.799 297.25 163.199 297.25ZM170.523 300.591C170.038 300.591 169.62 300.528 169.271 300.403C168.921 300.281 168.63 300.119 168.397 299.918C168.167 299.719 167.984 299.506 167.847 299.278L168.648 298.716C168.739 298.835 168.854 298.972 168.994 299.125C169.133 299.281 169.323 299.416 169.565 299.53C169.809 299.646 170.129 299.705 170.523 299.705C171.052 299.705 171.488 299.577 171.832 299.321C172.175 299.065 172.347 298.665 172.347 298.119V296.79H172.262C172.188 296.909 172.083 297.057 171.947 297.233C171.813 297.406 171.62 297.561 171.367 297.697C171.117 297.831 170.779 297.898 170.353 297.898C169.825 297.898 169.35 297.773 168.93 297.523C168.512 297.273 168.181 296.909 167.937 296.432C167.695 295.955 167.575 295.375 167.575 294.693C167.575 294.023 167.692 293.439 167.928 292.942C168.164 292.442 168.492 292.055 168.913 291.783C169.333 291.507 169.819 291.369 170.37 291.369C170.796 291.369 171.134 291.44 171.384 291.582C171.637 291.722 171.83 291.881 171.964 292.06C172.1 292.236 172.205 292.381 172.279 292.494H172.381V291.455H173.353V298.188C173.353 298.75 173.225 299.207 172.969 299.56C172.717 299.915 172.376 300.175 171.947 300.339C171.521 300.507 171.046 300.591 170.523 300.591ZM170.489 296.994C170.893 296.994 171.234 296.902 171.512 296.717C171.79 296.533 172.002 296.267 172.147 295.92C172.292 295.574 172.364 295.159 172.364 294.676C172.364 294.205 172.293 293.788 172.151 293.428C172.009 293.067 171.799 292.784 171.521 292.58C171.242 292.375 170.898 292.273 170.489 292.273C170.063 292.273 169.708 292.381 169.424 292.597C169.143 292.812 168.931 293.102 168.789 293.466C168.65 293.83 168.58 294.233 168.58 294.676C168.58 295.131 168.651 295.533 168.793 295.882C168.938 296.229 169.151 296.501 169.433 296.7C169.717 296.896 170.069 296.994 170.489 296.994ZM177.938 298.136C177.308 298.136 176.763 297.997 176.306 297.719C175.852 297.438 175.501 297.045 175.254 296.543C175.009 296.037 174.887 295.449 174.887 294.778C174.887 294.108 175.009 293.517 175.254 293.006C175.501 292.491 175.844 292.091 176.285 291.804C176.728 291.514 177.245 291.369 177.836 291.369C178.177 291.369 178.513 291.426 178.846 291.54C179.178 291.653 179.481 291.838 179.754 292.094C180.026 292.347 180.244 292.682 180.406 293.099C180.567 293.517 180.648 294.031 180.648 294.642V295.068H175.603V294.199H179.626C179.626 293.83 179.552 293.5 179.404 293.21C179.259 292.92 179.052 292.692 178.782 292.524C178.515 292.357 178.2 292.273 177.836 292.273C177.435 292.273 177.089 292.372 176.796 292.571C176.506 292.767 176.283 293.023 176.127 293.338C175.971 293.653 175.893 293.991 175.893 294.352V294.932C175.893 295.426 175.978 295.845 176.148 296.189C176.322 296.53 176.562 296.79 176.869 296.969C177.175 297.145 177.532 297.233 177.938 297.233C178.202 297.233 178.441 297.196 178.654 297.122C178.87 297.045 179.056 296.932 179.212 296.781C179.369 296.628 179.489 296.437 179.575 296.21L180.546 296.483C180.444 296.812 180.272 297.102 180.031 297.352C179.789 297.599 179.491 297.793 179.136 297.932C178.781 298.068 178.381 298.136 177.938 298.136Z" fill="black"/>
<path d="M207.58 230.136C206.989 230.136 206.47 229.996 206.024 229.714C205.581 229.433 205.234 229.04 204.984 228.534C204.737 228.028 204.614 227.437 204.614 226.761C204.614 226.08 204.737 225.484 204.984 224.976C205.234 224.467 205.581 224.072 206.024 223.791C206.47 223.51 206.989 223.369 207.58 223.369C208.17 223.369 208.688 223.51 209.131 223.791C209.577 224.072 209.923 224.467 210.17 224.976C210.42 225.484 210.545 226.08 210.545 226.761C210.545 227.437 210.42 228.028 210.17 228.534C209.923 229.04 209.577 229.433 209.131 229.714C208.688 229.996 208.17 230.136 207.58 230.136ZM207.58 229.233C208.028 229.233 208.398 229.118 208.688 228.888C208.977 228.658 209.192 228.355 209.331 227.98C209.47 227.605 209.54 227.199 209.54 226.761C209.54 226.324 209.47 225.916 209.331 225.538C209.192 225.161 208.977 224.855 208.688 224.622C208.398 224.389 208.028 224.273 207.58 224.273C207.131 224.273 206.761 224.389 206.472 224.622C206.182 224.855 205.967 225.161 205.828 225.538C205.689 225.916 205.619 226.324 205.619 226.761C205.619 227.199 205.689 227.605 205.828 227.98C205.967 228.355 206.182 228.658 206.472 228.888C206.761 229.118 207.131 229.233 207.58 229.233ZM212.081 230V223.455H213.052V224.443H213.12C213.24 224.119 213.456 223.857 213.768 223.655C214.081 223.453 214.433 223.352 214.825 223.352C214.899 223.352 214.991 223.354 215.102 223.357C215.213 223.359 215.297 223.364 215.353 223.369V224.392C215.319 224.384 215.241 224.371 215.119 224.354C215 224.334 214.873 224.324 214.74 224.324C214.422 224.324 214.137 224.391 213.887 224.524C213.64 224.655 213.444 224.837 213.299 225.07C213.157 225.3 213.086 225.562 213.086 225.858V230H212.081Z" fill="black"/>
<rect x="14.5" y="280.5" width="79" height="26" fill="#B8E1FF" stroke="black"/>
<path d="M27.75 298H25.0568V289.273H27.8693C28.7159 289.273 29.4403 289.447 30.0426 289.797C30.6449 290.143 31.1065 290.642 31.4276 291.293C31.7486 291.94 31.9091 292.716 31.9091 293.619C31.9091 294.528 31.7472 295.311 31.4233 295.967C31.0994 296.621 30.6278 297.124 30.0085 297.476C29.3892 297.825 28.6364 298 27.75 298ZM26.1136 297.062H27.6818C28.4034 297.062 29.0014 296.923 29.4759 296.645C29.9503 296.366 30.304 295.97 30.5369 295.456C30.7699 294.942 30.8864 294.33 30.8864 293.619C30.8864 292.915 30.7713 292.308 30.5412 291.8C30.3111 291.288 29.9673 290.896 29.5099 290.624C29.0526 290.348 28.483 290.21 27.8011 290.21H26.1136V297.062ZM33.5455 298V291.455H34.5511V298H33.5455ZM34.0568 290.364C33.8608 290.364 33.6918 290.297 33.5497 290.163C33.4105 290.03 33.3409 289.869 33.3409 289.682C33.3409 289.494 33.4105 289.334 33.5497 289.2C33.6918 289.067 33.8608 289 34.0568 289C34.2528 289 34.4205 289.067 34.5597 289.2C34.7017 289.334 34.7727 289.494 34.7727 289.682C34.7727 289.869 34.7017 290.03 34.5597 290.163C34.4205 290.297 34.2528 290.364 34.0568 290.364ZM38.3192 298.153C37.9045 298.153 37.5281 298.075 37.19 297.919C36.8519 297.76 36.5835 297.531 36.3846 297.233C36.1857 296.932 36.0863 296.568 36.0863 296.142C36.0863 295.767 36.1602 295.463 36.3079 295.23C36.4556 294.994 36.6531 294.81 36.9002 294.676C37.1474 294.543 37.4201 294.443 37.7184 294.378C38.0195 294.31 38.3221 294.256 38.6261 294.216C39.0238 294.165 39.3462 294.126 39.5934 294.101C39.8434 294.072 40.0252 294.026 40.1388 293.96C40.2553 293.895 40.3136 293.781 40.3136 293.619V293.585C40.3136 293.165 40.1985 292.838 39.9684 292.605C39.7411 292.372 39.396 292.256 38.9329 292.256C38.4528 292.256 38.0763 292.361 37.8036 292.571C37.5309 292.781 37.3391 293.006 37.2283 293.244L36.2738 292.903C36.4442 292.506 36.6715 292.196 36.9556 291.974C37.2425 291.75 37.555 291.594 37.8931 291.506C38.234 291.415 38.5692 291.369 38.8988 291.369C39.109 291.369 39.3505 291.395 39.6232 291.446C39.8988 291.494 40.1644 291.595 40.4201 291.749C40.6786 291.902 40.8931 292.134 41.0636 292.443C41.234 292.753 41.3192 293.168 41.3192 293.688V298H40.3136V297.114H40.2624C40.1942 297.256 40.0806 297.408 39.9215 297.57C39.7624 297.732 39.5508 297.869 39.2866 297.983C39.0224 298.097 38.6999 298.153 38.3192 298.153ZM38.4727 297.25C38.8704 297.25 39.2056 297.172 39.4783 297.016C39.7539 296.859 39.9613 296.658 40.1005 296.411C40.2425 296.163 40.3136 295.903 40.3136 295.631V294.71C40.271 294.761 40.1772 294.808 40.0323 294.851C39.8903 294.891 39.7255 294.926 39.538 294.957C39.3533 294.986 39.1729 295.011 38.9968 295.034C38.8235 295.054 38.6829 295.071 38.5749 295.085C38.3136 295.119 38.0692 295.175 37.842 295.251C37.6175 295.325 37.4357 295.437 37.2965 295.588C37.1602 295.736 37.092 295.937 37.092 296.193C37.092 296.543 37.2212 296.807 37.4798 296.986C37.7411 297.162 38.0721 297.25 38.4727 297.25ZM44.1605 289.273V298H43.1548V289.273H44.1605ZM48.6616 298.136C48.0707 298.136 47.5522 297.996 47.1062 297.714C46.663 297.433 46.3164 297.04 46.0664 296.534C45.8192 296.028 45.6957 295.437 45.6957 294.761C45.6957 294.08 45.8192 293.484 46.0664 292.976C46.3164 292.467 46.663 292.072 47.1062 291.791C47.5522 291.51 48.0707 291.369 48.6616 291.369C49.2525 291.369 49.7695 291.51 50.2127 291.791C50.6587 292.072 51.0053 292.467 51.2525 292.976C51.5025 293.484 51.6275 294.08 51.6275 294.761C51.6275 295.437 51.5025 296.028 51.2525 296.534C51.0053 297.04 50.6587 297.433 50.2127 297.714C49.7695 297.996 49.2525 298.136 48.6616 298.136ZM48.6616 297.233C49.1104 297.233 49.4798 297.118 49.7695 296.888C50.0593 296.658 50.2738 296.355 50.413 295.98C50.5522 295.605 50.6218 295.199 50.6218 294.761C50.6218 294.324 50.5522 293.916 50.413 293.538C50.2738 293.161 50.0593 292.855 49.7695 292.622C49.4798 292.389 49.1104 292.273 48.6616 292.273C48.2127 292.273 47.8434 292.389 47.5536 292.622C47.2638 292.855 47.0494 293.161 46.9102 293.538C46.771 293.916 46.7013 294.324 46.7013 294.761C46.7013 295.199 46.771 295.605 46.9102 295.98C47.0494 296.355 47.2638 296.658 47.5536 296.888C47.8434 297.118 48.2127 297.233 48.6616 297.233ZM55.8047 300.591C55.3189 300.591 54.9013 300.528 54.5518 300.403C54.2024 300.281 53.9112 300.119 53.6783 299.918C53.4482 299.719 53.2649 299.506 53.1286 299.278L53.9297 298.716C54.0206 298.835 54.1357 298.972 54.2749 299.125C54.4141 299.281 54.6044 299.416 54.8459 299.53C55.0902 299.646 55.4098 299.705 55.8047 299.705C56.3331 299.705 56.7692 299.577 57.1129 299.321C57.4567 299.065 57.6286 298.665 57.6286 298.119V296.79H57.5433C57.4695 296.909 57.3643 297.057 57.228 297.233C57.0945 297.406 56.9013 297.561 56.6484 297.697C56.3984 297.831 56.0604 297.898 55.6342 297.898C55.1058 297.898 54.6314 297.773 54.2109 297.523C53.7933 297.273 53.4624 296.909 53.218 296.432C52.9766 295.955 52.8558 295.375 52.8558 294.693C52.8558 294.023 52.9737 293.439 53.2095 292.942C53.4453 292.442 53.7734 292.055 54.1939 291.783C54.6143 291.507 55.1001 291.369 55.6513 291.369C56.0774 291.369 56.4155 291.44 56.6655 291.582C56.9183 291.722 57.1115 291.881 57.245 292.06C57.3814 292.236 57.4865 292.381 57.5604 292.494H57.6626V291.455H58.6342V298.188C58.6342 298.75 58.5064 299.207 58.2507 299.56C57.9979 299.915 57.657 300.175 57.228 300.339C56.8018 300.507 56.3274 300.591 55.8047 300.591ZM55.7706 296.994C56.174 296.994 56.5149 296.902 56.7933 296.717C57.0717 296.533 57.2834 296.267 57.4283 295.92C57.5732 295.574 57.6456 295.159 57.6456 294.676C57.6456 294.205 57.5746 293.788 57.4325 293.428C57.2905 293.067 57.0803 292.784 56.8018 292.58C56.5234 292.375 56.1797 292.273 55.7706 292.273C55.3445 292.273 54.9893 292.381 54.7053 292.597C54.424 292.812 54.2124 293.102 54.0703 293.466C53.9311 293.83 53.8615 294.233 53.8615 294.676C53.8615 295.131 53.9325 295.533 54.0746 295.882C54.2195 296.229 54.4325 296.501 54.7138 296.7C54.9979 296.896 55.3501 296.994 55.7706 296.994ZM61.6683 289.273V298H60.6115V289.273H61.6683ZM66.4975 291.455V292.307H63.1055V291.455H66.4975ZM64.0941 289.886H65.0998V296.125C65.0998 296.409 65.141 296.622 65.2234 296.764C65.3086 296.903 65.4165 296.997 65.5472 297.045C65.6808 297.091 65.8214 297.114 65.9691 297.114C66.0799 297.114 66.1708 297.108 66.2418 297.097C66.3129 297.082 66.3697 297.071 66.4123 297.062L66.6168 297.966C66.5487 297.991 66.4535 298.017 66.3313 298.043C66.2092 298.071 66.0543 298.085 65.8668 298.085C65.5827 298.085 65.3043 298.024 65.0316 297.902C64.7617 297.78 64.5373 297.594 64.3583 297.344C64.1822 297.094 64.0941 296.778 64.0941 296.398V289.886ZM70.6843 298.136C70.0536 298.136 69.5096 297.997 69.0522 297.719C68.5977 297.438 68.2468 297.045 67.9996 296.543C67.7553 296.037 67.6332 295.449 67.6332 294.778C67.6332 294.108 67.7553 293.517 67.9996 293.006C68.2468 292.491 68.5906 292.091 69.0309 291.804C69.4741 291.514 69.9911 291.369 70.582 291.369C70.9229 291.369 71.2596 291.426 71.592 291.54C71.9244 291.653 72.2269 291.838 72.4996 292.094C72.7724 292.347 72.9897 292.682 73.1516 293.099C73.3136 293.517 73.3945 294.031 73.3945 294.642V295.068H68.3491V294.199H72.3718C72.3718 293.83 72.2979 293.5 72.1502 293.21C72.0053 292.92 71.7979 292.692 71.5281 292.524C71.261 292.357 70.9457 292.273 70.582 292.273C70.1815 292.273 69.8349 292.372 69.5423 292.571C69.2525 292.767 69.0295 293.023 68.8732 293.338C68.717 293.653 68.6388 293.991 68.6388 294.352V294.932C68.6388 295.426 68.7241 295.845 68.8945 296.189C69.0678 296.53 69.3079 296.79 69.6147 296.969C69.9215 297.145 70.2781 297.233 70.6843 297.233C70.9485 297.233 71.1871 297.196 71.4002 297.122C71.6161 297.045 71.8022 296.932 71.9585 296.781C72.1147 296.628 72.2354 296.437 72.3207 296.21L73.2923 296.483C73.19 296.812 73.0181 297.102 72.7766 297.352C72.5352 297.599 72.2369 297.793 71.8817 297.932C71.5266 298.068 71.1275 298.136 70.6843 298.136ZM74.9244 298V291.455H75.896V292.477H75.9812C76.1175 292.128 76.3377 291.857 76.6417 291.663C76.9457 291.467 77.3107 291.369 77.7369 291.369C78.1687 291.369 78.5281 291.467 78.815 291.663C79.1048 291.857 79.3306 292.128 79.4925 292.477H79.5607C79.7283 292.139 79.9798 291.871 80.315 291.672C80.6502 291.47 81.0522 291.369 81.521 291.369C82.1062 291.369 82.5849 291.553 82.957 291.919C83.3292 292.283 83.5153 292.849 83.5153 293.619V298H82.5096V293.619C82.5096 293.136 82.3775 292.791 82.1133 292.584C81.8491 292.376 81.538 292.273 81.18 292.273C80.7198 292.273 80.3633 292.412 80.1104 292.69C79.8576 292.966 79.7312 293.315 79.7312 293.739V298H78.7085V293.517C78.7085 293.145 78.5877 292.845 78.3462 292.618C78.1048 292.388 77.7937 292.273 77.413 292.273C77.1516 292.273 76.9073 292.342 76.68 292.482C76.4556 292.621 76.2738 292.814 76.1346 293.061C75.9982 293.305 75.93 293.588 75.93 293.909V298H74.9244Z" fill="black"/>
<rect x="239.5" y="280.5" width="79" height="26" fill="#B8E1FF" stroke="black"/>
<path d="M250.057 298V289.273H253.006C253.69 289.273 254.25 289.396 254.685 289.643C255.122 289.888 255.446 290.219 255.656 290.636C255.866 291.054 255.972 291.52 255.972 292.034C255.972 292.548 255.866 293.016 255.656 293.436C255.449 293.857 255.128 294.192 254.693 294.442C254.259 294.689 253.702 294.812 253.023 294.812H250.909V293.875H252.989C253.457 293.875 253.834 293.794 254.118 293.632C254.402 293.47 254.608 293.251 254.736 292.976C254.866 292.697 254.932 292.384 254.932 292.034C254.932 291.685 254.866 291.372 254.736 291.097C254.608 290.821 254.401 290.605 254.114 290.449C253.827 290.29 253.446 290.21 252.972 290.21H251.114V298H250.057ZM257.538 298V291.455H258.509V292.443H258.577C258.697 292.119 258.913 291.857 259.225 291.655C259.538 291.453 259.89 291.352 260.282 291.352C260.356 291.352 260.448 291.354 260.559 291.357C260.67 291.359 260.754 291.364 260.81 291.369V292.392C260.776 292.384 260.698 292.371 260.576 292.354C260.457 292.334 260.33 292.324 260.197 292.324C259.879 292.324 259.594 292.391 259.344 292.524C259.097 292.655 258.901 292.837 258.756 293.07C258.614 293.3 258.543 293.562 258.543 293.858V298H257.538ZM264.462 298.136C263.871 298.136 263.353 297.996 262.907 297.714C262.464 297.433 262.117 297.04 261.867 296.534C261.62 296.028 261.496 295.437 261.496 294.761C261.496 294.08 261.62 293.484 261.867 292.976C262.117 292.467 262.464 292.072 262.907 291.791C263.353 291.51 263.871 291.369 264.462 291.369C265.053 291.369 265.57 291.51 266.013 291.791C266.46 292.072 266.806 292.467 267.053 292.976C267.303 293.484 267.428 294.08 267.428 294.761C267.428 295.437 267.303 296.028 267.053 296.534C266.806 297.04 266.46 297.433 266.013 297.714C265.57 297.996 265.053 298.136 264.462 298.136ZM264.462 297.233C264.911 297.233 265.281 297.118 265.57 296.888C265.86 296.658 266.075 296.355 266.214 295.98C266.353 295.605 266.423 295.199 266.423 294.761C266.423 294.324 266.353 293.916 266.214 293.538C266.075 293.161 265.86 292.855 265.57 292.622C265.281 292.389 264.911 292.273 264.462 292.273C264.013 292.273 263.644 292.389 263.354 292.622C263.065 292.855 262.85 293.161 262.711 293.538C262.572 293.916 262.502 294.324 262.502 294.761C262.502 295.199 262.572 295.605 262.711 295.98C262.85 296.355 263.065 296.658 263.354 296.888C263.644 297.118 264.013 297.233 264.462 297.233ZM271.878 291.455V292.307H268.35V291.455H271.878ZM269.407 298V290.551C269.407 290.176 269.495 289.864 269.671 289.614C269.847 289.364 270.076 289.176 270.357 289.051C270.638 288.926 270.935 288.864 271.248 288.864C271.495 288.864 271.696 288.884 271.853 288.923C272.009 288.963 272.125 289 272.202 289.034L271.912 289.903C271.861 289.886 271.79 289.865 271.699 289.839C271.611 289.814 271.495 289.801 271.35 289.801C271.017 289.801 270.777 289.885 270.63 290.053C270.485 290.22 270.412 290.466 270.412 290.79V298H269.407ZM273.288 298V291.455H274.293V298H273.288ZM273.799 290.364C273.603 290.364 273.434 290.297 273.292 290.163C273.153 290.03 273.083 289.869 273.083 289.682C273.083 289.494 273.153 289.334 273.292 289.2C273.434 289.067 273.603 289 273.799 289C273.995 289 274.163 289.067 274.302 289.2C274.444 289.334 274.515 289.494 274.515 289.682C274.515 289.869 274.444 290.03 274.302 290.163C274.163 290.297 273.995 290.364 273.799 290.364ZM277.141 289.273V298H276.135V289.273H277.141ZM281.727 298.136C281.097 298.136 280.553 297.997 280.095 297.719C279.641 297.438 279.29 297.045 279.043 296.543C278.798 296.037 278.676 295.449 278.676 294.778C278.676 294.108 278.798 293.517 279.043 293.006C279.29 292.491 279.634 292.091 280.074 291.804C280.517 291.514 281.034 291.369 281.625 291.369C281.966 291.369 282.303 291.426 282.635 291.54C282.967 291.653 283.27 291.838 283.543 292.094C283.815 292.347 284.033 292.682 284.195 293.099C284.357 293.517 284.438 294.031 284.438 294.642V295.068H279.392V294.199H283.415C283.415 293.83 283.341 293.5 283.193 293.21C283.048 292.92 282.841 292.692 282.571 292.524C282.304 292.357 281.989 292.273 281.625 292.273C281.224 292.273 280.878 292.372 280.585 292.571C280.295 292.767 280.072 293.023 279.916 293.338C279.76 293.653 279.682 293.991 279.682 294.352V294.932C279.682 295.426 279.767 295.845 279.938 296.189C280.111 296.53 280.351 296.79 280.658 296.969C280.964 297.145 281.321 297.233 281.727 297.233C281.991 297.233 282.23 297.196 282.443 297.122C282.659 297.045 282.845 296.932 283.001 296.781C283.158 296.628 283.278 296.437 283.364 296.21L284.335 296.483C284.233 296.812 284.061 297.102 283.82 297.352C283.578 297.599 283.28 297.793 282.925 297.932C282.57 298.068 282.17 298.136 281.727 298.136ZM287.161 289.273V298H286.104V289.273H287.161ZM290.149 294.062V298H289.143V291.455H290.115V292.477H290.2C290.353 292.145 290.586 291.878 290.899 291.676C291.211 291.472 291.615 291.369 292.109 291.369C292.552 291.369 292.94 291.46 293.272 291.642C293.605 291.821 293.863 292.094 294.048 292.46C294.233 292.824 294.325 293.284 294.325 293.841V298H293.319V293.909C293.319 293.395 293.186 292.994 292.919 292.707C292.652 292.418 292.285 292.273 291.819 292.273C291.498 292.273 291.211 292.342 290.958 292.482C290.708 292.621 290.511 292.824 290.366 293.091C290.221 293.358 290.149 293.682 290.149 294.062ZM299.077 291.455V292.307H295.549V291.455H299.077ZM296.606 298V290.551C296.606 290.176 296.694 289.864 296.87 289.614C297.046 289.364 297.275 289.176 297.556 289.051C297.837 288.926 298.134 288.864 298.447 288.864C298.694 288.864 298.896 288.884 299.052 288.923C299.208 288.963 299.325 289 299.401 289.034L299.112 289.903C299.06 289.886 298.989 289.865 298.898 289.839C298.81 289.814 298.694 289.801 298.549 289.801C298.217 289.801 297.977 289.885 297.829 290.053C297.684 290.22 297.612 290.466 297.612 290.79V298H296.606ZM302.876 298.136C302.286 298.136 301.767 297.996 301.321 297.714C300.878 297.433 300.531 297.04 300.281 296.534C300.034 296.028 299.911 295.437 299.911 294.761C299.911 294.08 300.034 293.484 300.281 292.976C300.531 292.467 300.878 292.072 301.321 291.791C301.767 291.51 302.286 291.369 302.876 291.369C303.467 291.369 303.984 291.51 304.428 291.791C304.874 292.072 305.22 292.467 305.467 292.976C305.717 293.484 305.842 294.08 305.842 294.761C305.842 295.437 305.717 296.028 305.467 296.534C305.22 297.04 304.874 297.433 304.428 297.714C303.984 297.996 303.467 298.136 302.876 298.136ZM302.876 297.233C303.325 297.233 303.695 297.118 303.984 296.888C304.274 296.658 304.489 296.355 304.628 295.98C304.767 295.605 304.837 295.199 304.837 294.761C304.837 294.324 304.767 293.916 304.628 293.538C304.489 293.161 304.274 292.855 303.984 292.622C303.695 292.389 303.325 292.273 302.876 292.273C302.428 292.273 302.058 292.389 301.768 292.622C301.479 292.855 301.264 293.161 301.125 293.538C300.986 293.916 300.916 294.324 300.916 294.761C300.916 295.199 300.986 295.605 301.125 295.98C301.264 296.355 301.479 296.658 301.768 296.888C302.058 297.118 302.428 297.233 302.876 297.233Z" fill="black"/>
<rect x="342.5" y="280.5" width="68" height="26" fill="#B8E1FF" stroke="black"/>
<path d="M353.057 289.273H354.318L357.284 296.517H357.386L360.352 289.273H361.614V298H360.625V291.369H360.54L357.812 298H356.858L354.131 291.369H354.045V298H353.057V289.273ZM364.244 300.455C364.074 300.455 363.922 300.44 363.788 300.412C363.654 300.386 363.562 300.361 363.511 300.335L363.767 299.449C364.011 299.511 364.227 299.534 364.414 299.517C364.602 299.5 364.768 299.416 364.913 299.266C365.061 299.118 365.196 298.878 365.318 298.545L365.505 298.034L363.085 291.455H364.176L365.983 296.67H366.051L367.858 291.455H368.949L366.17 298.955C366.045 299.293 365.89 299.572 365.706 299.794C365.521 300.018 365.306 300.185 365.062 300.293C364.821 300.401 364.548 300.455 364.244 300.455ZM370.412 298V289.273H373.361C374.046 289.273 374.605 289.396 375.04 289.643C375.478 289.888 375.801 290.219 376.012 290.636C376.222 291.054 376.327 291.52 376.327 292.034C376.327 292.548 376.222 293.016 376.012 293.436C375.804 293.857 375.483 294.192 375.049 294.442C374.614 294.689 374.057 294.812 373.378 294.812H371.265V293.875H373.344C373.813 293.875 374.189 293.794 374.473 293.632C374.757 293.47 374.963 293.251 375.091 292.976C375.222 292.697 375.287 292.384 375.287 292.034C375.287 291.685 375.222 291.372 375.091 291.097C374.963 290.821 374.756 290.605 374.469 290.449C374.182 290.29 373.801 290.21 373.327 290.21H371.469V298H370.412ZM380.482 298.136C379.891 298.136 379.373 297.996 378.926 297.714C378.483 297.433 378.137 297.04 377.887 296.534C377.64 296.028 377.516 295.437 377.516 294.761C377.516 294.08 377.64 293.484 377.887 292.976C378.137 292.467 378.483 292.072 378.926 291.791C379.373 291.51 379.891 291.369 380.482 291.369C381.073 291.369 381.59 291.51 382.033 291.791C382.479 292.072 382.826 292.467 383.073 292.976C383.323 293.484 383.448 294.08 383.448 294.761C383.448 295.437 383.323 296.028 383.073 296.534C382.826 297.04 382.479 297.433 382.033 297.714C381.59 297.996 381.073 298.136 380.482 298.136ZM380.482 297.233C380.931 297.233 381.3 297.118 381.59 296.888C381.88 296.658 382.094 296.355 382.233 295.98C382.373 295.605 382.442 295.199 382.442 294.761C382.442 294.324 382.373 293.916 382.233 293.538C382.094 293.161 381.88 292.855 381.59 292.622C381.3 292.389 380.931 292.273 380.482 292.273C380.033 292.273 379.664 292.389 379.374 292.622C379.084 292.855 378.87 293.161 378.73 293.538C378.591 293.916 378.522 294.324 378.522 294.761C378.522 295.199 378.591 295.605 378.73 295.98C378.87 296.355 379.084 296.658 379.374 296.888C379.664 297.118 380.033 297.233 380.482 297.233ZM389.619 292.92L388.716 293.176C388.659 293.026 388.575 292.879 388.464 292.737C388.357 292.592 388.209 292.473 388.021 292.379C387.834 292.286 387.594 292.239 387.301 292.239C386.901 292.239 386.567 292.331 386.3 292.516C386.036 292.697 385.903 292.929 385.903 293.21C385.903 293.46 385.994 293.658 386.176 293.803C386.358 293.947 386.642 294.068 387.028 294.165L388 294.403C388.585 294.545 389.021 294.763 389.308 295.055C389.595 295.345 389.739 295.719 389.739 296.176C389.739 296.551 389.631 296.886 389.415 297.182C389.202 297.477 388.903 297.71 388.52 297.881C388.136 298.051 387.69 298.136 387.182 298.136C386.514 298.136 385.962 297.991 385.524 297.702C385.087 297.412 384.81 296.989 384.693 296.432L385.648 296.193C385.739 296.545 385.911 296.81 386.163 296.986C386.419 297.162 386.753 297.25 387.165 297.25C387.634 297.25 388.006 297.151 388.281 296.952C388.56 296.75 388.699 296.509 388.699 296.227C388.699 296 388.619 295.81 388.46 295.656C388.301 295.5 388.057 295.384 387.727 295.307L386.636 295.051C386.037 294.909 385.597 294.689 385.315 294.391C385.037 294.089 384.898 293.713 384.898 293.261C384.898 292.892 385.001 292.565 385.209 292.281C385.419 291.997 385.705 291.774 386.065 291.612C386.429 291.45 386.841 291.369 387.301 291.369C387.949 291.369 388.457 291.511 388.827 291.795C389.199 292.08 389.463 292.455 389.619 292.92ZM394.099 291.455V292.307H390.707V291.455H394.099ZM391.696 289.886H392.701V296.125C392.701 296.409 392.743 296.622 392.825 296.764C392.91 296.903 393.018 296.997 393.149 297.045C393.282 297.091 393.423 297.114 393.571 297.114C393.681 297.114 393.772 297.108 393.843 297.097C393.914 297.082 393.971 297.071 394.014 297.062L394.218 297.966C394.15 297.991 394.055 298.017 393.933 298.043C393.811 298.071 393.656 298.085 393.468 298.085C393.184 298.085 392.906 298.024 392.633 297.902C392.363 297.78 392.139 297.594 391.96 297.344C391.784 297.094 391.696 296.778 391.696 296.398V289.886ZM400.131 292.92L399.228 293.176C399.171 293.026 399.087 292.879 398.976 292.737C398.868 292.592 398.721 292.473 398.533 292.379C398.346 292.286 398.105 292.239 397.813 292.239C397.412 292.239 397.078 292.331 396.811 292.516C396.547 292.697 396.415 292.929 396.415 293.21C396.415 293.46 396.506 293.658 396.688 293.803C396.87 293.947 397.154 294.068 397.54 294.165L398.512 294.403C399.097 294.545 399.533 294.763 399.82 295.055C400.107 295.345 400.25 295.719 400.25 296.176C400.25 296.551 400.142 296.886 399.926 297.182C399.713 297.477 399.415 297.71 399.032 297.881C398.648 298.051 398.202 298.136 397.694 298.136C397.026 298.136 396.473 297.991 396.036 297.702C395.598 297.412 395.321 296.989 395.205 296.432L396.159 296.193C396.25 296.545 396.422 296.81 396.675 296.986C396.931 297.162 397.265 297.25 397.676 297.25C398.145 297.25 398.517 297.151 398.793 296.952C399.071 296.75 399.211 296.509 399.211 296.227C399.211 296 399.131 295.81 398.972 295.656C398.813 295.5 398.569 295.384 398.239 295.307L397.148 295.051C396.549 294.909 396.108 294.689 395.827 294.391C395.549 294.089 395.409 293.713 395.409 293.261C395.409 292.892 395.513 292.565 395.721 292.281C395.931 291.997 396.216 291.774 396.577 291.612C396.941 291.45 397.353 291.369 397.813 291.369C398.461 291.369 398.969 291.511 399.338 291.795C399.711 292.08 399.975 292.455 400.131 292.92Z" fill="black"/>
<rect x="394.5" y="336.5" width="41" height="26" stroke="black"/>
<rect x="402.5" y="342.5" width="41" height="26" stroke="black"/>
<rect x="408.5" y="348.5" width="41" height="26" fill="#B8E1FF" stroke="black"/>
<path d="M417.057 366V357.273H420.006C420.69 357.273 421.25 357.396 421.685 357.643C422.122 357.888 422.446 358.219 422.656 358.636C422.866 359.054 422.972 359.52 422.972 360.034C422.972 360.548 422.866 361.016 422.656 361.436C422.449 361.857 422.128 362.192 421.693 362.442C421.259 362.689 420.702 362.812 420.023 362.812H417.909V361.875H419.989C420.457 361.875 420.834 361.794 421.118 361.632C421.402 361.47 421.608 361.251 421.736 360.976C421.866 360.697 421.932 360.384 421.932 360.034C421.932 359.685 421.866 359.372 421.736 359.097C421.608 358.821 421.401 358.605 421.114 358.449C420.827 358.29 420.446 358.21 419.972 358.21H418.114V366H417.057ZM427.126 366.136C426.536 366.136 426.017 365.996 425.571 365.714C425.128 365.433 424.781 365.04 424.531 364.534C424.284 364.028 424.161 363.437 424.161 362.761C424.161 362.08 424.284 361.484 424.531 360.976C424.781 360.467 425.128 360.072 425.571 359.791C426.017 359.51 426.536 359.369 427.126 359.369C427.717 359.369 428.234 359.51 428.678 359.791C429.124 360.072 429.47 360.467 429.717 360.976C429.967 361.484 430.092 362.08 430.092 362.761C430.092 363.437 429.967 364.028 429.717 364.534C429.47 365.04 429.124 365.433 428.678 365.714C428.234 365.996 427.717 366.136 427.126 366.136ZM427.126 365.233C427.575 365.233 427.945 365.118 428.234 364.888C428.524 364.658 428.739 364.355 428.878 363.98C429.017 363.605 429.087 363.199 429.087 362.761C429.087 362.324 429.017 361.916 428.878 361.538C428.739 361.161 428.524 360.855 428.234 360.622C427.945 360.389 427.575 360.273 427.126 360.273C426.678 360.273 426.308 360.389 426.018 360.622C425.729 360.855 425.514 361.161 425.375 361.538C425.236 361.916 425.166 362.324 425.166 362.761C425.166 363.199 425.236 363.605 425.375 363.98C425.514 364.355 425.729 364.658 426.018 364.888C426.308 365.118 426.678 365.233 427.126 365.233ZM436.264 360.92L435.36 361.176C435.304 361.026 435.22 360.879 435.109 360.737C435.001 360.592 434.853 360.473 434.666 360.379C434.478 360.286 434.238 360.239 433.946 360.239C433.545 360.239 433.211 360.331 432.944 360.516C432.68 360.697 432.548 360.929 432.548 361.21C432.548 361.46 432.639 361.658 432.821 361.803C433.002 361.947 433.287 362.068 433.673 362.165L434.645 362.403C435.23 362.545 435.666 362.763 435.953 363.055C436.24 363.345 436.383 363.719 436.383 364.176C436.383 364.551 436.275 364.886 436.059 365.182C435.846 365.477 435.548 365.71 435.164 365.881C434.781 366.051 434.335 366.136 433.826 366.136C433.159 366.136 432.606 365.991 432.169 365.702C431.731 365.412 431.454 364.989 431.338 364.432L432.292 364.193C432.383 364.545 432.555 364.81 432.808 364.986C433.064 365.162 433.397 365.25 433.809 365.25C434.278 365.25 434.65 365.151 434.926 364.952C435.204 364.75 435.343 364.509 435.343 364.227C435.343 364 435.264 363.81 435.105 363.656C434.946 363.5 434.701 363.384 434.372 363.307L433.281 363.051C432.681 362.909 432.241 362.689 431.96 362.391C431.681 362.089 431.542 361.713 431.542 361.261C431.542 360.892 431.646 360.565 431.853 360.281C432.064 359.997 432.349 359.774 432.71 359.612C433.074 359.45 433.485 359.369 433.946 359.369C434.593 359.369 435.102 359.511 435.471 359.795C435.843 360.08 436.108 360.455 436.264 360.92ZM440.744 359.455V360.307H437.352V359.455H440.744ZM438.34 357.886H439.346V364.125C439.346 364.409 439.387 364.622 439.469 364.764C439.555 364.903 439.663 364.997 439.793 365.045C439.927 365.091 440.067 365.114 440.215 365.114C440.326 365.114 440.417 365.108 440.488 365.097C440.559 365.082 440.616 365.071 440.658 365.062L440.863 365.966C440.795 365.991 440.7 366.017 440.577 366.043C440.455 366.071 440.3 366.085 440.113 366.085C439.829 366.085 439.55 366.024 439.278 365.902C439.008 365.78 438.783 365.594 438.604 365.344C438.428 365.094 438.34 364.778 438.34 364.398V357.886Z" fill="black"/>
<rect x="261.5" y="212.5" width="56" height="26" fill="#B8E1FF" stroke="black"/>
<path d="M274.057 230V221.273H277.006C277.69 221.273 278.25 221.396 278.685 221.643C279.122 221.888 279.446 222.219 279.656 222.636C279.866 223.054 279.972 223.52 279.972 224.034C279.972 224.548 279.866 225.016 279.656 225.436C279.449 225.857 279.128 226.192 278.693 226.442C278.259 226.689 277.702 226.812 277.023 226.812H274.909V225.875H276.989C277.457 225.875 277.834 225.794 278.118 225.632C278.402 225.47 278.608 225.251 278.736 224.976C278.866 224.697 278.932 224.384 278.932 224.034C278.932 223.685 278.866 223.372 278.736 223.097C278.608 222.821 278.401 222.605 278.114 222.449C277.827 222.29 277.446 222.21 276.972 222.21H275.114V230H274.057ZM281.538 230V223.455H282.509V224.443H282.577C282.697 224.119 282.913 223.857 283.225 223.655C283.538 223.453 283.89 223.352 284.282 223.352C284.356 223.352 284.448 223.354 284.559 223.357C284.67 223.359 284.754 223.364 284.81 223.369V224.392C284.776 224.384 284.698 224.371 284.576 224.354C284.457 224.334 284.33 224.324 284.197 224.324C283.879 224.324 283.594 224.391 283.344 224.524C283.097 224.655 282.901 224.837 282.756 225.07C282.614 225.3 282.543 225.562 282.543 225.858V230H281.538ZM288.462 230.136C287.871 230.136 287.353 229.996 286.907 229.714C286.464 229.433 286.117 229.04 285.867 228.534C285.62 228.028 285.496 227.437 285.496 226.761C285.496 226.08 285.62 225.484 285.867 224.976C286.117 224.467 286.464 224.072 286.907 223.791C287.353 223.51 287.871 223.369 288.462 223.369C289.053 223.369 289.57 223.51 290.013 223.791C290.46 224.072 290.806 224.467 291.053 224.976C291.303 225.484 291.428 226.08 291.428 226.761C291.428 227.437 291.303 228.028 291.053 228.534C290.806 229.04 290.46 229.433 290.013 229.714C289.57 229.996 289.053 230.136 288.462 230.136ZM288.462 229.233C288.911 229.233 289.281 229.118 289.57 228.888C289.86 228.658 290.075 228.355 290.214 227.98C290.353 227.605 290.423 227.199 290.423 226.761C290.423 226.324 290.353 225.916 290.214 225.538C290.075 225.161 289.86 224.855 289.57 224.622C289.281 224.389 288.911 224.273 288.462 224.273C288.013 224.273 287.644 224.389 287.354 224.622C287.065 224.855 286.85 225.161 286.711 225.538C286.572 225.916 286.502 226.324 286.502 226.761C286.502 227.199 286.572 227.605 286.711 227.98C286.85 228.355 287.065 228.658 287.354 228.888C287.644 229.118 288.013 229.233 288.462 229.233ZM295.878 223.455V224.307H292.35V223.455H295.878ZM293.407 230V222.551C293.407 222.176 293.495 221.864 293.671 221.614C293.847 221.364 294.076 221.176 294.357 221.051C294.638 220.926 294.935 220.864 295.248 220.864C295.495 220.864 295.696 220.884 295.853 220.923C296.009 220.963 296.125 221 296.202 221.034L295.912 221.903C295.861 221.886 295.79 221.865 295.699 221.839C295.611 221.814 295.495 221.801 295.35 221.801C295.017 221.801 294.777 221.885 294.63 222.053C294.485 222.22 294.412 222.466 294.412 222.79V230H293.407ZM297.288 230V223.455H298.293V230H297.288ZM297.799 222.364C297.603 222.364 297.434 222.297 297.292 222.163C297.153 222.03 297.083 221.869 297.083 221.682C297.083 221.494 297.153 221.334 297.292 221.2C297.434 221.067 297.603 221 297.799 221C297.995 221 298.163 221.067 298.302 221.2C298.444 221.334 298.515 221.494 298.515 221.682C298.515 221.869 298.444 222.03 298.302 222.163C298.163 222.297 297.995 222.364 297.799 222.364ZM301.141 221.273V230H300.135V221.273H301.141ZM305.727 230.136C305.097 230.136 304.553 229.997 304.095 229.719C303.641 229.438 303.29 229.045 303.043 228.543C302.798 228.037 302.676 227.449 302.676 226.778C302.676 226.108 302.798 225.517 303.043 225.006C303.29 224.491 303.634 224.091 304.074 223.804C304.517 223.514 305.034 223.369 305.625 223.369C305.966 223.369 306.303 223.426 306.635 223.54C306.967 223.653 307.27 223.838 307.543 224.094C307.815 224.347 308.033 224.682 308.195 225.099C308.357 225.517 308.438 226.031 308.438 226.642V227.068H303.392V226.199H307.415C307.415 225.83 307.341 225.5 307.193 225.21C307.048 224.92 306.841 224.692 306.571 224.524C306.304 224.357 305.989 224.273 305.625 224.273C305.224 224.273 304.878 224.372 304.585 224.571C304.295 224.767 304.072 225.023 303.916 225.338C303.76 225.653 303.682 225.991 303.682 226.352V226.932C303.682 227.426 303.767 227.845 303.938 228.189C304.111 228.53 304.351 228.79 304.658 228.969C304.964 229.145 305.321 229.233 305.727 229.233C305.991 229.233 306.23 229.196 306.443 229.122C306.659 229.045 306.845 228.932 307.001 228.781C307.158 228.628 307.278 228.437 307.364 228.21L308.335 228.483C308.233 228.812 308.061 229.102 307.82 229.352C307.578 229.599 307.28 229.793 306.925 229.932C306.57 230.068 306.17 230.136 305.727 230.136Z" fill="black"/>
<rect x="435.5" y="212.5" width="56" height="26" fill="#B8E1FF" stroke="black"/>
<path d="M451.977 221.273V230H450.955L446.199 223.148H446.114V230H445.057V221.273H446.08L450.852 228.142H450.938V221.273H451.977ZM455.882 230.153C455.467 230.153 455.091 230.075 454.752 229.919C454.414 229.76 454.146 229.531 453.947 229.233C453.748 228.932 453.649 228.568 453.649 228.142C453.649 227.767 453.723 227.463 453.87 227.23C454.018 226.994 454.216 226.81 454.463 226.676C454.71 226.543 454.983 226.443 455.281 226.378C455.582 226.31 455.885 226.256 456.189 226.216C456.586 226.165 456.909 226.126 457.156 226.101C457.406 226.072 457.588 226.026 457.701 225.96C457.818 225.895 457.876 225.781 457.876 225.619V225.585C457.876 225.165 457.761 224.838 457.531 224.605C457.304 224.372 456.958 224.256 456.495 224.256C456.015 224.256 455.639 224.361 455.366 224.571C455.093 224.781 454.902 225.006 454.791 225.244L453.836 224.903C454.007 224.506 454.234 224.196 454.518 223.974C454.805 223.75 455.118 223.594 455.456 223.506C455.797 223.415 456.132 223.369 456.461 223.369C456.672 223.369 456.913 223.395 457.186 223.446C457.461 223.494 457.727 223.595 457.983 223.749C458.241 223.902 458.456 224.134 458.626 224.443C458.797 224.753 458.882 225.168 458.882 225.688V230H457.876V229.114H457.825C457.757 229.256 457.643 229.408 457.484 229.57C457.325 229.732 457.113 229.869 456.849 229.983C456.585 230.097 456.262 230.153 455.882 230.153ZM456.035 229.25C456.433 229.25 456.768 229.172 457.041 229.016C457.316 228.859 457.524 228.658 457.663 228.411C457.805 228.163 457.876 227.903 457.876 227.631V226.71C457.833 226.761 457.74 226.808 457.595 226.851C457.453 226.891 457.288 226.926 457.1 226.957C456.916 226.986 456.735 227.011 456.559 227.034C456.386 227.054 456.245 227.071 456.137 227.085C455.876 227.119 455.632 227.175 455.404 227.251C455.18 227.325 454.998 227.437 454.859 227.588C454.723 227.736 454.654 227.937 454.654 228.193C454.654 228.543 454.784 228.807 455.042 228.986C455.304 229.162 455.635 229.25 456.035 229.25ZM465.835 223.455L463.415 230H462.392L459.972 223.455H461.062L462.869 228.67H462.938L464.744 223.455H465.835ZM467.299 230V221.273H470.35C470.958 221.273 471.46 221.378 471.854 221.588C472.249 221.795 472.543 222.075 472.737 222.428C472.93 222.777 473.026 223.165 473.026 223.591C473.026 223.966 472.96 224.276 472.826 224.52C472.695 224.764 472.522 224.957 472.306 225.099C472.093 225.241 471.862 225.347 471.612 225.415V225.5C471.879 225.517 472.147 225.611 472.417 225.781C472.687 225.952 472.913 226.196 473.094 226.514C473.276 226.832 473.367 227.222 473.367 227.682C473.367 228.119 473.268 228.513 473.069 228.862C472.87 229.212 472.556 229.489 472.127 229.693C471.698 229.898 471.14 230 470.452 230H467.299ZM468.356 229.062H470.452C471.143 229.062 471.633 228.929 471.923 228.662C472.215 228.392 472.362 228.065 472.362 227.682C472.362 227.386 472.286 227.114 472.136 226.864C471.985 226.611 471.771 226.409 471.492 226.259C471.214 226.105 470.884 226.028 470.504 226.028H468.356V229.062ZM468.356 225.108H470.316C470.634 225.108 470.921 225.045 471.177 224.92C471.435 224.795 471.64 224.619 471.79 224.392C471.944 224.165 472.021 223.898 472.021 223.591C472.021 223.207 471.887 222.882 471.62 222.615C471.353 222.345 470.93 222.21 470.35 222.21H468.356V225.108ZM476.893 230.153C476.479 230.153 476.102 230.075 475.764 229.919C475.426 229.76 475.158 229.531 474.959 229.233C474.76 228.932 474.661 228.568 474.661 228.142C474.661 227.767 474.734 227.463 474.882 227.23C475.03 226.994 475.227 226.81 475.474 226.676C475.722 226.543 475.994 226.443 476.293 226.378C476.594 226.31 476.896 226.256 477.2 226.216C477.598 226.165 477.92 226.126 478.168 226.101C478.418 226.072 478.599 226.026 478.713 225.96C478.83 225.895 478.888 225.781 478.888 225.619V225.585C478.888 225.165 478.773 224.838 478.543 224.605C478.315 224.372 477.97 224.256 477.507 224.256C477.027 224.256 476.651 224.361 476.378 224.571C476.105 224.781 475.913 225.006 475.803 225.244L474.848 224.903C475.018 224.506 475.246 224.196 475.53 223.974C475.817 223.75 476.129 223.594 476.467 223.506C476.808 223.415 477.143 223.369 477.473 223.369C477.683 223.369 477.925 223.395 478.197 223.446C478.473 223.494 478.739 223.595 478.994 223.749C479.253 223.902 479.467 224.134 479.638 224.443C479.808 224.753 479.893 225.168 479.893 225.688V230H478.888V229.114H478.837C478.768 229.256 478.655 229.408 478.496 229.57C478.337 229.732 478.125 229.869 477.861 229.983C477.597 230.097 477.274 230.153 476.893 230.153ZM477.047 229.25C477.445 229.25 477.78 229.172 478.053 229.016C478.328 228.859 478.536 228.658 478.675 228.411C478.817 228.163 478.888 227.903 478.888 227.631V226.71C478.845 226.761 478.751 226.808 478.607 226.851C478.464 226.891 478.3 226.926 478.112 226.957C477.928 226.986 477.747 227.011 477.571 227.034C477.398 227.054 477.257 227.071 477.149 227.085C476.888 227.119 476.643 227.175 476.416 227.251C476.192 227.325 476.01 227.437 475.871 227.588C475.734 227.736 475.666 227.937 475.666 228.193C475.666 228.543 475.795 228.807 476.054 228.986C476.315 229.162 476.646 229.25 477.047 229.25ZM481.729 230V223.455H482.701V224.443H482.769C482.888 224.119 483.104 223.857 483.417 223.655C483.729 223.453 484.081 223.352 484.473 223.352C484.547 223.352 484.64 223.354 484.75 223.357C484.861 223.359 484.945 223.364 485.002 223.369V224.392C484.968 224.384 484.89 224.371 484.767 224.354C484.648 224.334 484.522 224.324 484.388 224.324C484.07 224.324 483.786 224.391 483.536 224.524C483.289 224.655 483.093 224.837 482.948 225.07C482.806 225.3 482.735 225.562 482.735 225.858V230H481.729Z" fill="black"/>
<rect x="594.5" y="212.5" width="56" height="26" fill="#B8E1FF" stroke="black"/>
<path d="M602.057 230V221.273H603.114V225.159H607.767V221.273H608.824V230H607.767V226.097H603.114V230H602.057ZM613.548 230.136C612.917 230.136 612.373 229.997 611.915 229.719C611.461 229.438 611.11 229.045 610.863 228.543C610.619 228.037 610.496 227.449 610.496 226.778C610.496 226.108 610.619 225.517 610.863 225.006C611.11 224.491 611.454 224.091 611.894 223.804C612.337 223.514 612.854 223.369 613.445 223.369C613.786 223.369 614.123 223.426 614.455 223.54C614.788 223.653 615.09 223.838 615.363 224.094C615.636 224.347 615.853 224.682 616.015 225.099C616.177 225.517 616.258 226.031 616.258 226.642V227.068H611.212V226.199H615.235C615.235 225.83 615.161 225.5 615.013 225.21C614.869 224.92 614.661 224.692 614.391 224.524C614.124 224.357 613.809 224.273 613.445 224.273C613.045 224.273 612.698 224.372 612.406 224.571C612.116 224.767 611.893 225.023 611.737 225.338C611.58 225.653 611.502 225.991 611.502 226.352V226.932C611.502 227.426 611.587 227.845 611.758 228.189C611.931 228.53 612.171 228.79 612.478 228.969C612.785 229.145 613.141 229.233 613.548 229.233C613.812 229.233 614.05 229.196 614.263 229.122C614.479 229.045 614.665 228.932 614.822 228.781C614.978 228.628 615.099 228.437 615.184 228.21L616.156 228.483C616.053 228.812 615.881 229.102 615.64 229.352C615.398 229.599 615.1 229.793 614.745 229.932C614.39 230.068 613.991 230.136 613.548 230.136ZM619.714 230.153C619.299 230.153 618.923 230.075 618.585 229.919C618.246 229.76 617.978 229.531 617.779 229.233C617.58 228.932 617.481 228.568 617.481 228.142C617.481 227.767 617.555 227.463 617.702 227.23C617.85 226.994 618.048 226.81 618.295 226.676C618.542 226.543 618.815 226.443 619.113 226.378C619.414 226.31 619.717 226.256 620.021 226.216C620.418 226.165 620.741 226.126 620.988 226.101C621.238 226.072 621.42 226.026 621.533 225.96C621.65 225.895 621.708 225.781 621.708 225.619V225.585C621.708 225.165 621.593 224.838 621.363 224.605C621.136 224.372 620.79 224.256 620.327 224.256C619.847 224.256 619.471 224.361 619.198 224.571C618.925 224.781 618.734 225.006 618.623 225.244L617.668 224.903C617.839 224.506 618.066 224.196 618.35 223.974C618.637 223.75 618.95 223.594 619.288 223.506C619.629 223.415 619.964 223.369 620.293 223.369C620.504 223.369 620.745 223.395 621.018 223.446C621.293 223.494 621.559 223.595 621.815 223.749C622.073 223.902 622.288 224.134 622.458 224.443C622.629 224.753 622.714 225.168 622.714 225.688V230H621.708V229.114H621.657C621.589 229.256 621.475 229.408 621.316 229.57C621.157 229.732 620.945 229.869 620.681 229.983C620.417 230.097 620.094 230.153 619.714 230.153ZM619.867 229.25C620.265 229.25 620.6 229.172 620.873 229.016C621.148 228.859 621.356 228.658 621.495 228.411C621.637 228.163 621.708 227.903 621.708 227.631V226.71C621.665 226.761 621.572 226.808 621.427 226.851C621.285 226.891 621.12 226.926 620.933 226.957C620.748 226.986 620.567 227.011 620.391 227.034C620.218 227.054 620.077 227.071 619.969 227.085C619.708 227.119 619.464 227.175 619.237 227.251C619.012 227.325 618.83 227.437 618.691 227.588C618.555 227.736 618.487 227.937 618.487 228.193C618.487 228.543 618.616 228.807 618.874 228.986C619.136 229.162 619.467 229.25 619.867 229.25ZM627.021 230.136C626.475 230.136 625.994 229.999 625.576 229.723C625.159 229.445 624.832 229.053 624.596 228.547C624.36 228.038 624.243 227.438 624.243 226.744C624.243 226.057 624.36 225.46 624.596 224.955C624.832 224.449 625.16 224.058 625.581 223.783C626.001 223.507 626.487 223.369 627.038 223.369C627.464 223.369 627.801 223.44 628.048 223.582C628.298 223.722 628.488 223.881 628.619 224.06C628.752 224.236 628.856 224.381 628.93 224.494H629.015V221.273H630.021V230H629.049V228.994H628.93C628.856 229.114 628.751 229.264 628.615 229.446C628.478 229.625 628.284 229.786 628.031 229.928C627.778 230.067 627.441 230.136 627.021 230.136ZM627.157 229.233C627.561 229.233 627.902 229.128 628.18 228.918C628.458 228.705 628.67 228.411 628.815 228.036C628.96 227.658 629.032 227.222 629.032 226.727C629.032 226.239 628.961 225.811 628.819 225.445C628.677 225.075 628.467 224.788 628.189 224.584C627.91 224.376 627.566 224.273 627.157 224.273C626.731 224.273 626.376 224.382 626.092 224.601C625.811 224.817 625.599 225.111 625.457 225.483C625.318 225.852 625.248 226.267 625.248 226.727C625.248 227.193 625.319 227.616 625.461 227.997C625.606 228.375 625.819 228.676 626.1 228.901C626.385 229.122 626.737 229.233 627.157 229.233ZM634.747 230.136C634.116 230.136 633.572 229.997 633.115 229.719C632.66 229.438 632.309 229.045 632.062 228.543C631.818 228.037 631.696 227.449 631.696 226.778C631.696 226.108 631.818 225.517 632.062 225.006C632.309 224.491 632.653 224.091 633.093 223.804C633.537 223.514 634.054 223.369 634.645 223.369C634.985 223.369 635.322 223.426 635.654 223.54C635.987 223.653 636.289 223.838 636.562 224.094C636.835 224.347 637.052 224.682 637.214 225.099C637.376 225.517 637.457 226.031 637.457 226.642V227.068H632.412V226.199H636.434C636.434 225.83 636.36 225.5 636.213 225.21C636.068 224.92 635.86 224.692 635.591 224.524C635.324 224.357 635.008 224.273 634.645 224.273C634.244 224.273 633.897 224.372 633.605 224.571C633.315 224.767 633.092 225.023 632.936 225.338C632.779 225.653 632.701 225.991 632.701 226.352V226.932C632.701 227.426 632.787 227.845 632.957 228.189C633.13 228.53 633.37 228.79 633.677 228.969C633.984 229.145 634.341 229.233 634.747 229.233C635.011 229.233 635.25 229.196 635.463 229.122C635.679 229.045 635.865 228.932 636.021 228.781C636.177 228.628 636.298 228.437 636.383 228.21L637.355 228.483C637.252 228.812 637.081 229.102 636.839 229.352C636.598 229.599 636.299 229.793 635.944 229.932C635.589 230.068 635.19 230.136 634.747 230.136ZM638.987 230V223.455H639.958V224.443H640.027C640.146 224.119 640.362 223.857 640.674 223.655C640.987 223.453 641.339 223.352 641.731 223.352C641.805 223.352 641.897 223.354 642.008 223.357C642.119 223.359 642.203 223.364 642.26 223.369V224.392C642.225 224.384 642.147 224.371 642.025 224.354C641.906 224.334 641.779 224.324 641.646 224.324C641.328 224.324 641.044 224.391 640.794 224.524C640.547 224.655 640.35 224.837 640.206 225.07C640.064 225.3 639.993 225.562 639.993 225.858V230H638.987Z" fill="black"/>
<path d="M276.057 180V171.273H279.108C279.716 171.273 280.217 171.378 280.612 171.588C281.007 171.795 281.301 172.075 281.494 172.428C281.688 172.777 281.784 173.165 281.784 173.591C281.784 173.966 281.717 174.276 281.584 174.52C281.453 174.764 281.28 174.957 281.064 175.099C280.851 175.241 280.619 175.347 280.369 175.415V175.5C280.636 175.517 280.905 175.611 281.175 175.781C281.445 175.952 281.67 176.196 281.852 176.514C282.034 176.832 282.125 177.222 282.125 177.682C282.125 178.119 282.026 178.513 281.827 178.862C281.628 179.212 281.314 179.489 280.885 179.693C280.456 179.898 279.898 180 279.21 180H276.057ZM277.114 179.062H279.21C279.901 179.062 280.391 178.929 280.68 178.662C280.973 178.392 281.119 178.065 281.119 177.682C281.119 177.386 281.044 177.114 280.893 176.864C280.743 176.611 280.528 176.409 280.25 176.259C279.972 176.105 279.642 176.028 279.261 176.028H277.114V179.062ZM277.114 175.108H279.074C279.392 175.108 279.679 175.045 279.935 174.92C280.193 174.795 280.398 174.619 280.548 174.392C280.702 174.165 280.778 173.898 280.778 173.591C280.778 173.207 280.645 172.882 280.378 172.615C280.111 172.345 279.688 172.21 279.108 172.21H277.114V175.108ZM283.725 180V173.455H284.697V174.443H284.765C284.884 174.119 285.1 173.857 285.413 173.655C285.725 173.453 286.077 173.352 286.469 173.352C286.543 173.352 286.636 173.354 286.746 173.357C286.857 173.359 286.941 173.364 286.998 173.369V174.392C286.964 174.384 286.886 174.371 286.763 174.354C286.644 174.334 286.518 174.324 286.384 174.324C286.066 174.324 285.782 174.391 285.532 174.524C285.285 174.655 285.089 174.837 284.944 175.07C284.802 175.3 284.731 175.562 284.731 175.858V180H283.725ZM290.65 180.136C290.059 180.136 289.54 179.996 289.094 179.714C288.651 179.433 288.305 179.04 288.055 178.534C287.808 178.028 287.684 177.437 287.684 176.761C287.684 176.08 287.808 175.484 288.055 174.976C288.305 174.467 288.651 174.072 289.094 173.791C289.54 173.51 290.059 173.369 290.65 173.369C291.241 173.369 291.758 173.51 292.201 173.791C292.647 174.072 292.994 174.467 293.241 174.976C293.491 175.484 293.616 176.08 293.616 176.761C293.616 177.437 293.491 178.028 293.241 178.534C292.994 179.04 292.647 179.433 292.201 179.714C291.758 179.996 291.241 180.136 290.65 180.136ZM290.65 179.233C291.099 179.233 291.468 179.118 291.758 178.888C292.048 178.658 292.262 178.355 292.401 177.98C292.54 177.605 292.61 177.199 292.61 176.761C292.61 176.324 292.54 175.916 292.401 175.538C292.262 175.161 292.048 174.855 291.758 174.622C291.468 174.389 291.099 174.273 290.65 174.273C290.201 174.273 289.832 174.389 289.542 174.622C289.252 174.855 289.038 175.161 288.898 175.538C288.759 175.916 288.69 176.324 288.69 176.761C288.69 177.199 288.759 177.605 288.898 177.98C289.038 178.355 289.252 178.658 289.542 178.888C289.832 179.118 290.201 179.233 290.65 179.233ZM296.411 180L294.417 173.455H295.474L296.888 178.466H296.957L298.354 173.455H299.428L300.809 178.449H300.877L302.292 173.455H303.349L301.354 180H300.366L298.934 174.972H298.832L297.4 180H296.411ZM309.315 174.92L308.411 175.176C308.354 175.026 308.271 174.879 308.16 174.737C308.052 174.592 307.904 174.473 307.717 174.379C307.529 174.286 307.289 174.239 306.996 174.239C306.596 174.239 306.262 174.331 305.995 174.516C305.731 174.697 305.599 174.929 305.599 175.21C305.599 175.46 305.69 175.658 305.871 175.803C306.053 175.947 306.337 176.068 306.724 176.165L307.695 176.403C308.281 176.545 308.717 176.763 309.004 177.055C309.29 177.345 309.434 177.719 309.434 178.176C309.434 178.551 309.326 178.886 309.11 179.182C308.897 179.477 308.599 179.71 308.215 179.881C307.832 180.051 307.386 180.136 306.877 180.136C306.21 180.136 305.657 179.991 305.219 179.702C304.782 179.412 304.505 178.989 304.388 178.432L305.343 178.193C305.434 178.545 305.606 178.81 305.859 178.986C306.114 179.162 306.448 179.25 306.86 179.25C307.329 179.25 307.701 179.151 307.977 178.952C308.255 178.75 308.394 178.509 308.394 178.227C308.394 178 308.315 177.81 308.156 177.656C307.996 177.5 307.752 177.384 307.423 177.307L306.332 177.051C305.732 176.909 305.292 176.689 305.011 176.391C304.732 176.089 304.593 175.713 304.593 175.261C304.593 174.892 304.697 174.565 304.904 174.281C305.114 173.997 305.4 173.774 305.761 173.612C306.124 173.45 306.536 173.369 306.996 173.369C307.644 173.369 308.153 173.511 308.522 173.795C308.894 174.08 309.158 174.455 309.315 174.92ZM313.692 180.136C313.061 180.136 312.517 179.997 312.06 179.719C311.605 179.438 311.255 179.045 311.007 178.543C310.763 178.037 310.641 177.449 310.641 176.778C310.641 176.108 310.763 175.517 311.007 175.006C311.255 174.491 311.598 174.091 312.039 173.804C312.482 173.514 312.999 173.369 313.59 173.369C313.931 173.369 314.267 173.426 314.6 173.54C314.932 173.653 315.235 173.838 315.507 174.094C315.78 174.347 315.998 174.682 316.159 175.099C316.321 175.517 316.402 176.031 316.402 176.642V177.068H311.357V176.199H315.38C315.38 175.83 315.306 175.5 315.158 175.21C315.013 174.92 314.806 174.692 314.536 174.524C314.269 174.357 313.953 174.273 313.59 174.273C313.189 174.273 312.843 174.372 312.55 174.571C312.26 174.767 312.037 175.023 311.881 175.338C311.725 175.653 311.647 175.991 311.647 176.352V176.932C311.647 177.426 311.732 177.845 311.902 178.189C312.076 178.53 312.316 178.79 312.623 178.969C312.929 179.145 313.286 179.233 313.692 179.233C313.956 179.233 314.195 179.196 314.408 179.122C314.624 179.045 314.81 178.932 314.966 178.781C315.123 178.628 315.243 178.437 315.328 178.21L316.3 178.483C316.198 178.812 316.026 179.102 315.784 179.352C315.543 179.599 315.245 179.793 314.89 179.932C314.534 180.068 314.135 180.136 313.692 180.136ZM317.932 180V173.455H318.904V174.443H318.972C319.091 174.119 319.307 173.857 319.62 173.655C319.932 173.453 320.284 173.352 320.676 173.352C320.75 173.352 320.843 173.354 320.953 173.357C321.064 173.359 321.148 173.364 321.205 173.369V174.392C321.171 174.384 321.093 174.371 320.971 174.354C320.851 174.334 320.725 174.324 320.591 174.324C320.273 174.324 319.989 174.391 319.739 174.524C319.492 174.655 319.296 174.837 319.151 175.07C319.009 175.3 318.938 175.562 318.938 175.858V180H317.932ZM322.533 180V171.273H325.482C326.164 171.273 326.724 171.389 327.161 171.622C327.599 171.852 327.923 172.169 328.133 172.572C328.343 172.976 328.448 173.435 328.448 173.949C328.448 174.463 328.343 174.919 328.133 175.317C327.923 175.714 327.6 176.027 327.165 176.254C326.731 176.479 326.175 176.591 325.499 176.591H323.113V175.636H325.465C325.931 175.636 326.306 175.568 326.59 175.432C326.877 175.295 327.085 175.102 327.212 174.852C327.343 174.599 327.408 174.298 327.408 173.949C327.408 173.599 327.343 173.294 327.212 173.033C327.082 172.771 326.873 172.57 326.586 172.428C326.299 172.283 325.92 172.21 325.448 172.21H323.59V180H322.533ZM326.641 176.08L328.789 180H327.562L325.448 176.08H326.641ZM332.662 180.136C332.071 180.136 331.552 179.996 331.106 179.714C330.663 179.433 330.316 179.04 330.066 178.534C329.819 178.028 329.696 177.437 329.696 176.761C329.696 176.08 329.819 175.484 330.066 174.976C330.316 174.467 330.663 174.072 331.106 173.791C331.552 173.51 332.071 173.369 332.662 173.369C333.252 173.369 333.77 173.51 334.213 173.791C334.659 174.072 335.005 174.467 335.252 174.976C335.502 175.484 335.627 176.08 335.627 176.761C335.627 177.437 335.502 178.028 335.252 178.534C335.005 179.04 334.659 179.433 334.213 179.714C333.77 179.996 333.252 180.136 332.662 180.136ZM332.662 179.233C333.11 179.233 333.48 179.118 333.77 178.888C334.059 178.658 334.274 178.355 334.413 177.98C334.552 177.605 334.622 177.199 334.622 176.761C334.622 176.324 334.552 175.916 334.413 175.538C334.274 175.161 334.059 174.855 333.77 174.622C333.48 174.389 333.11 174.273 332.662 174.273C332.213 174.273 331.843 174.389 331.554 174.622C331.264 174.855 331.049 175.161 330.91 175.538C330.771 175.916 330.701 176.324 330.701 176.761C330.701 177.199 330.771 177.605 330.91 177.98C331.049 178.355 331.264 178.658 331.554 178.888C331.843 179.118 332.213 179.233 332.662 179.233ZM341.288 177.324V173.455H342.293V180H341.288V178.892H341.219C341.066 179.224 340.827 179.507 340.504 179.74C340.18 179.97 339.771 180.085 339.276 180.085C338.867 180.085 338.504 179.996 338.185 179.817C337.867 179.635 337.617 179.362 337.435 178.999C337.254 178.632 337.163 178.17 337.163 177.614V173.455H338.168V177.545C338.168 178.023 338.302 178.403 338.569 178.688C338.839 178.972 339.183 179.114 339.6 179.114C339.85 179.114 340.104 179.05 340.363 178.922C340.624 178.794 340.843 178.598 341.019 178.334C341.198 178.07 341.288 177.733 341.288 177.324ZM346.982 173.455V174.307H343.59V173.455H346.982ZM344.578 171.886H345.584V178.125C345.584 178.409 345.625 178.622 345.708 178.764C345.793 178.903 345.901 178.997 346.032 179.045C346.165 179.091 346.306 179.114 346.453 179.114C346.564 179.114 346.655 179.108 346.726 179.097C346.797 179.082 346.854 179.071 346.897 179.062L347.101 179.966C347.033 179.991 346.938 180.017 346.816 180.043C346.694 180.071 346.539 180.085 346.351 180.085C346.067 180.085 345.789 180.024 345.516 179.902C345.246 179.78 345.022 179.594 344.843 179.344C344.667 179.094 344.578 178.778 344.578 178.398V171.886ZM351.169 180.136C350.538 180.136 349.994 179.997 349.537 179.719C349.082 179.438 348.731 179.045 348.484 178.543C348.24 178.037 348.118 177.449 348.118 176.778C348.118 176.108 348.24 175.517 348.484 175.006C348.731 174.491 349.075 174.091 349.515 173.804C349.958 173.514 350.475 173.369 351.066 173.369C351.407 173.369 351.744 173.426 352.076 173.54C352.409 173.653 352.711 173.838 352.984 174.094C353.257 174.347 353.474 174.682 353.636 175.099C353.798 175.517 353.879 176.031 353.879 176.642V177.068H348.833V176.199H352.856C352.856 175.83 352.782 175.5 352.635 175.21C352.49 174.92 352.282 174.692 352.012 174.524C351.745 174.357 351.43 174.273 351.066 174.273C350.666 174.273 350.319 174.372 350.027 174.571C349.737 174.767 349.514 175.023 349.358 175.338C349.201 175.653 349.123 175.991 349.123 176.352V176.932C349.123 177.426 349.208 177.845 349.379 178.189C349.552 178.53 349.792 178.79 350.099 178.969C350.406 179.145 350.762 179.233 351.169 179.233C351.433 179.233 351.672 179.196 351.885 179.122C352.1 179.045 352.287 178.932 352.443 178.781C352.599 178.628 352.72 178.437 352.805 178.21L353.777 178.483C353.674 178.812 353.502 179.102 353.261 179.352C353.02 179.599 352.721 179.793 352.366 179.932C352.011 180.068 351.612 180.136 351.169 180.136ZM355.409 180V173.455H356.38V174.443H356.449C356.568 174.119 356.784 173.857 357.096 173.655C357.409 173.453 357.761 173.352 358.153 173.352C358.227 173.352 358.319 173.354 358.43 173.357C358.541 173.359 358.625 173.364 358.681 173.369V174.392C358.647 174.384 358.569 174.371 358.447 174.354C358.328 174.334 358.201 174.324 358.068 174.324C357.75 174.324 357.466 174.391 357.216 174.524C356.968 174.655 356.772 174.837 356.627 175.07C356.485 175.3 356.414 175.562 356.414 175.858V180H355.409Z" fill="black"/>
<path d="M313.939 155.061C314.525 155.646 315.475 155.646 316.061 155.061L325.607 145.515C326.192 144.929 326.192 143.979 325.607 143.393C325.021 142.808 324.071 142.808 323.485 143.393L315 151.879L306.515 143.393C305.929 142.808 304.979 142.808 304.393 143.393C303.808 143.979 303.808 144.929 304.393 145.515L313.939 155.061ZM313.5 137V154H316.5V137H313.5Z" fill="black"/>
<path d="M154.64 206.367C154.29 207.118 154.616 208.01 155.367 208.36L167.604 214.06C168.355 214.409 169.248 214.084 169.598 213.333C169.947 212.582 169.622 211.69 168.871 211.34L157.993 206.274L163.06 195.396C163.409 194.645 163.084 193.752 162.333 193.402C161.582 193.053 160.69 193.378 160.34 194.129L154.64 206.367ZM262.486 166.591L155.486 205.591L156.514 208.409L263.514 169.409L262.486 166.591Z" fill="black"/>
<path d="M290.504 207.115C290.568 207.941 291.289 208.559 292.115 208.496L305.575 207.46C306.401 207.397 307.019 206.676 306.956 205.85C306.892 205.024 306.171 204.405 305.345 204.469L293.381 205.389L292.46 193.425C292.397 192.599 291.676 191.981 290.85 192.044C290.024 192.108 289.405 192.829 289.469 193.655L290.504 207.115ZM302.861 192.024L290.861 206.024L293.139 207.976L305.139 193.976L302.861 192.024Z" fill="black"/>
<path d="M429.484 213.42C430.268 213.152 430.687 212.3 430.42 211.516L426.064 198.738C425.796 197.954 424.944 197.535 424.16 197.802C423.376 198.07 422.957 198.922 423.224 199.706L427.096 211.064L415.738 214.936C414.954 215.204 414.535 216.056 414.802 216.84C415.07 217.624 415.922 218.043 416.706 217.776L429.484 213.42ZM369.338 184.346L428.338 213.346L429.662 210.654L370.662 181.654L369.338 184.346Z" fill="black"/>
<path d="M587.829 213.25C588.519 212.793 588.708 211.862 588.25 211.171L580.792 199.919C580.334 199.228 579.403 199.039 578.713 199.497C578.022 199.955 577.833 200.886 578.291 201.576L584.921 211.578L574.919 218.208C574.228 218.666 574.039 219.597 574.497 220.287C574.955 220.978 575.886 221.167 576.576 220.709L587.829 213.25ZM369.702 169.47L586.702 213.47L587.298 210.53L370.298 166.53L369.702 169.47Z" fill="black"/>
<path d="M67.501 272.944C67.4704 273.772 68.1166 274.468 68.9445 274.499L82.4352 274.999C83.2631 275.029 83.9591 274.383 83.9897 273.555C84.0204 272.727 83.3741 272.031 82.5463 272.001L70.5545 271.557L70.9986 259.565C71.0293 258.737 70.383 258.041 69.5552 258.01C68.7273 257.98 68.0313 258.626 68.0007 259.454L67.501 272.944ZM95.9793 245.901L67.9793 271.901L70.0207 274.099L98.0207 248.099L95.9793 245.901Z" fill="black"/>
<path d="M163.526 274.423C164.312 274.685 165.161 274.26 165.423 273.474L169.692 260.667C169.954 259.881 169.529 259.032 168.743 258.77C167.958 258.508 167.108 258.933 166.846 259.718L163.051 271.103L151.667 267.308C150.881 267.046 150.032 267.471 149.77 268.257C149.508 269.042 149.933 269.892 150.718 270.154L163.526 274.423ZM149.658 247.671L162.658 273.671L165.342 272.329L152.342 246.329L149.658 247.671Z" fill="black"/>
<path d="M268.758 273.841C269.223 274.527 270.155 274.707 270.841 274.242L282.018 266.67C282.704 266.206 282.883 265.273 282.419 264.587C281.954 263.901 281.022 263.722 280.336 264.187L270.401 270.917L263.67 260.982C263.206 260.296 262.273 260.117 261.587 260.581C260.901 261.046 260.722 261.978 261.187 262.664L268.758 273.841ZM273.527 246.717L268.527 272.717L271.473 273.283L276.473 247.283L273.527 246.717Z" fill="black"/>
<path d="M348.921 274.498C349.748 274.541 350.454 273.906 350.498 273.079L351.207 259.598C351.251 258.77 350.616 258.064 349.788 258.021C348.961 257.977 348.255 258.613 348.212 259.44L347.581 271.423L335.597 270.793C334.77 270.749 334.064 271.384 334.021 272.212C333.977 273.039 334.613 273.745 335.44 273.788L348.921 274.498ZM320.885 244.003L347.885 274.003L350.115 271.997L323.115 241.997L320.885 244.003Z" fill="black"/>
<path d="M404.492 331.411C405.271 331.692 406.131 331.288 406.411 330.508L410.984 317.806C411.265 317.027 410.86 316.167 410.081 315.887C409.301 315.606 408.442 316.01 408.161 316.79L404.097 328.081L392.806 324.016C392.027 323.735 391.167 324.14 390.887 324.919C390.606 325.699 391.01 326.558 391.79 326.839L404.492 331.411ZM395.643 313.639L403.643 330.639L406.357 329.361L398.357 312.361L395.643 313.639Z" fill="black"/>
</svg>
