<svg width="176" height="176" viewBox="0 0 176 176" fill="none" xmlns="http://www.w3.org/2000/svg">
<path d="M159.875 3.625H16.5188C9.39375 3.625 3.625 9.39375 3.625 16.5188V159.875C3.625 166.775 9.225 172.375 16.125 172.375H159.875C166.775 172.375 172.375 166.775 172.375 159.875V16.125C172.375 9.225 166.775 3.625 159.875 3.625Z" fill="white"/>
<path d="M172.04 13.34C171.14 13.1338 170.215 13.0025 169.252 13.0025H19.2524C15.8024 13.0025 13.0024 15.8025 13.0024 19.2525V169.253C13.0024 170.215 13.1337 171.14 13.3399 172.04C14.2399 172.246 15.1649 172.378 16.1274 172.378H97.3774V109.878H72.3774V84.8775H97.3774V53.6275C97.3774 39.8213 108.571 28.6275 122.377 28.6275H147.377V53.6275H128.627C125.171 53.6275 122.377 56.4213 122.377 59.8775V84.8775H147.377L144.252 109.878H122.377V172.378H159.877C166.777 172.378 172.377 166.777 172.377 159.878V16.1275C172.377 15.165 172.246 14.24 172.04 13.34Z" fill="#73C2E6"/>
<path d="M84.875 175.505H16.125C7.5125 175.505 0.5 168.499 0.5 159.88V47.38C0.5 45.655 1.9 44.255 3.625 44.255C5.35 44.255 6.75 45.655 6.75 47.38V159.88C6.75 165.049 10.9563 169.255 16.125 169.255H84.875C86.6 169.255 88 170.655 88 172.38C88 174.105 86.6 175.505 84.875 175.505Z" fill="#455A64"/>
<path d="M159.875 175.5H122.375C120.65 175.5 119.25 174.1 119.25 172.375V109.875C119.25 108.15 120.65 106.75 122.375 106.75H141.494L143.837 88H122.375C120.65 88 119.25 86.6 119.25 84.875V59.875C119.25 54.7062 123.456 50.5 128.625 50.5H144.25V31.75H122.375C110.312 31.75 100.5 41.5625 100.5 53.625V84.875C100.5 86.6 99.1 88 97.375 88H75.5V106.75H97.375C99.1 106.75 100.5 108.15 100.5 109.875V172.375C100.5 174.1 99.1 175.5 97.375 175.5C95.65 175.5 94.25 174.1 94.25 172.375V113H72.375C70.65 113 69.25 111.6 69.25 109.875V84.875C69.25 83.15 70.65 81.75 72.375 81.75H94.25V53.625C94.25 38.1188 106.869 25.5 122.375 25.5H147.375C149.1 25.5 150.5 26.9 150.5 28.625V53.625C150.5 55.35 149.1 56.75 147.375 56.75H128.625C126.9 56.75 125.5 58.1562 125.5 59.875V81.75H147.375C148.275 81.75 149.125 82.1375 149.719 82.8063C150.312 83.475 150.588 84.375 150.475 85.2687L147.35 110.269C147.156 111.831 145.825 113 144.25 113H125.5V169.25H159.875C165.044 169.25 169.25 165.044 169.25 159.875V16.125C169.25 10.9563 165.044 6.75 159.875 6.75H16.125C10.9563 6.75 6.75 10.9563 6.75 16.125V22.375C6.75 24.1 5.35 25.5 3.625 25.5C1.9 25.5 0.5 24.1 0.5 22.375V16.125C0.5 7.50625 7.5125 0.5 16.125 0.5H159.875C168.488 0.5 175.5 7.50625 175.5 16.125V159.875C175.5 168.494 168.488 175.5 159.875 175.5Z" fill="#455A64"/>
<path d="M6.755 34.88C6.755 36.5988 5.34875 38.005 3.63 38.005C1.91125 38.005 0.505005 36.5988 0.505005 34.88C0.505005 33.1613 1.91125 31.755 3.63 31.755C5.34875 31.755 6.755 33.1613 6.755 34.88Z" fill="#455A64"/>
</svg>
