<svg width="125" height="128" viewBox="0 0 125 128" fill="none" xmlns="http://www.w3.org/2000/svg">
<path d="M95.1145 120.51C95.1145 120.51 57.2102 124.423 34.5177 123.64C11.8252 122.858 1.74658 134.532 1.99698 90.6498C2.24738 46.7672 4.09408 10.7722 4.09408 10.7722C4.09408 10.7722 8.94558 4.01139 38.3363 3.82359C37.7294 11.6891 37.7294 19.5896 38.3363 27.4551C35.383 27.6762 32.6225 29.0056 30.6082 31.1766C28.594 33.3476 27.4748 36.1998 27.4752 39.1613V88.8344C27.4834 91.9531 28.726 94.9418 30.9313 97.1471C33.1366 99.3524 36.1252 100.595 39.244 100.603H66.1307C74.1927 109.31 84.094 116.111 95.1145 120.51Z" fill="#9DCBF4"/>
<path d="M29.3546 32.6794C30.0745 31.9282 4.12684 56.1544 1.99844 83.7923C1.99844 83.7923 -2.50876 114.059 10.0425 120.319C22.5938 126.579 50.2317 123.449 50.2317 123.449C50.2317 123.449 90.9217 109.771 97.1817 97.0009C103.442 84.2305 99.8735 100.882 85.9763 100.506C72.0791 100.131 39.0263 101.289 32.7663 98.6285C26.5063 95.968 24.597 88.4247 24.597 84.2305C24.597 80.0363 26.475 35.8094 29.3546 32.6794Z" fill="#389AD6"/>
<path d="M121.58 18.4898V109.51C121.571 113.346 120.046 117.022 117.337 119.737C114.628 122.452 110.954 123.986 107.119 124.002H17.6322C13.8021 123.986 10.1336 122.457 7.42524 119.748C4.71692 117.04 3.1881 113.372 3.17163 109.542V18.4898C3.17986 14.6542 4.70503 10.9777 7.41425 8.26262C10.1235 5.54754 13.7967 4.01442 17.6322 3.99789H107.119" stroke="#2A5081" stroke-width="6.26" stroke-linecap="round" stroke-linejoin="round"/>
<path d="M121.63 11.29C123.359 11.29 124.76 9.88865 124.76 8.16C124.76 6.43135 123.359 5.03 121.63 5.03C119.901 5.03 118.5 6.43135 118.5 8.16C118.5 9.88865 119.901 11.29 121.63 11.29Z" fill="#2A5081"/>
<path d="M85.9701 45.26C87.6987 45.26 89.1001 43.8587 89.1001 42.13C89.1001 40.4013 87.6987 39 85.9701 39C84.2414 39 82.8401 40.4013 82.8401 42.13C82.8401 43.8587 84.2414 45.26 85.9701 45.26Z" fill="#2A5081"/>
<path d="M55.2948 48.6484C55.2948 48.6484 29.0028 61.1684 29.4097 80.4179C29.8166 99.6674 31.7572 98.8849 44.2772 100.606C56.7972 102.328 76.5475 85.8954 79.6775 72.2799C82.8075 58.6644 83.6526 83.7044 66.1246 81.6699C48.5966 79.6354 47.5324 70.2454 47.5324 70.2454C47.5324 70.2454 44.4024 54.8458 55.2948 48.6484Z" fill="#9DCBF4"/>
<path d="M38.2791 27.4403C35.3258 27.6614 32.5653 28.9908 30.551 31.1618C28.5368 33.3328 27.4176 36.185 27.418 39.1465V88.8509C27.4262 91.9696 28.6688 94.9583 30.8741 97.1636C33.0794 99.3689 36.068 100.611 39.1868 100.62H66.0735" stroke="#2A5081" stroke-width="6.26" stroke-linecap="round" stroke-linejoin="round"/>
<path d="M66.0395 100.611H88.8572C91.976 100.603 94.9646 99.3602 97.1699 97.1549C99.3752 94.9496 100.618 91.9609 100.626 88.8422V39.1378C100.618 36.0191 99.3752 33.0304 97.1699 30.8251C94.9646 28.6198 91.976 27.3773 88.8572 27.369H39.1528C38.8511 27.3369 38.5468 27.3369 38.2451 27.369" stroke="#2A5081" stroke-width="6.26" stroke-linecap="round" stroke-linejoin="round"/>
<path d="M70.2601 47.5449C66.7386 46.2094 62.8822 46.0351 59.2546 47.0475C55.627 48.0599 52.4183 50.206 50.0973 53.1721C47.7764 56.1382 46.4649 59.7689 46.3545 63.5335C46.2441 67.2982 47.3406 70.9994 49.4838 74.0964C51.627 77.1934 54.7045 79.5238 58.2665 80.7471C61.8286 81.9703 65.6885 82.0223 69.2822 80.8953C72.8759 79.7684 76.015 77.5217 78.2408 74.4835C80.4665 71.4453 81.6623 67.7749 81.6533 64.0087" stroke="#2A5081" stroke-width="6.26" stroke-linecap="round" stroke-linejoin="round"/>
<path d="M58.9745 53.8324C60.9565 52.9935 63.1664 52.8609 65.2345 53.4568C66.3776 53.8053 67.4109 54.4441 68.2337 55.3108C69.0565 56.1775 69.6408 57.2425 69.9295 58.4022C70.1505 59.2358 70.0382 60.1227 69.6165 60.8749C69.1152 61.4309 68.4692 61.8365 67.7506 62.0466C67.0321 62.2566 66.2693 62.2627 65.5475 62.0643C63.8271 61.6406 62.0158 61.7833 60.383 62.4712C58.3485 63.6606 58.5363 66.6341 59.2875 68.5434C59.5869 69.4419 60.1128 70.2481 60.8146 70.8841C61.5164 71.5201 62.3703 71.9645 63.2939 72.1742C64.139 72.1742 65.0154 72.1742 65.8918 72.3307C66.3222 72.3607 66.7378 72.5001 67.0993 72.7356C67.4608 72.9711 67.7562 73.295 67.9576 73.6766C68.0949 74.1447 68.0672 74.6458 67.8791 75.0959C67.6911 75.546 67.3542 75.9179 66.9247 76.1493C66.0304 76.6183 64.9978 76.7515 64.0138 76.5249C61.9227 76.2806 59.9024 75.6169 58.0739 74.5735C56.2453 73.5302 54.646 72.1286 53.3718 70.4527C52.4892 69.0955 51.9111 67.5632 51.6774 65.9613C51.4437 64.3593 51.5599 62.7257 52.018 61.173C52.4761 59.6202 53.2652 58.1852 54.331 56.9666C55.3968 55.748 56.7141 54.7749 58.192 54.1141L58.9745 53.8324Z" fill="#9DCBF4"/>
</svg>
