<svg width="176" height="176" viewBox="0 0 176 176" fill="none" xmlns="http://www.w3.org/2000/svg">
<path d="M62.125 3.625H113.869C161.125 3.625 172.369 14.875 172.369 62.125V113.875C172.369 161.125 161.119 172.375 113.869 172.375H62.125C14.8687 172.375 3.625 161.125 3.625 113.875V62.125C3.625 14.875 14.875 3.625 62.125 3.625Z" fill="white"/>
<path d="M123.242 13.0025H65.2425C20.6112 13.0025 12.9925 20.6213 12.9925 65.2525V123.253C12.9925 142.665 14.9487 155.928 20.4675 164.903C29.4425 170.421 42.705 172.378 62.1175 172.378H113.861C161.117 172.378 172.361 161.128 172.361 113.878V62.1275C172.361 42.715 170.405 29.4525 164.886 20.4775C155.917 14.9588 142.655 13.0025 123.242 13.0025Z" fill="#80D8FF"/>
<path d="M113.875 175.5H62.125C13.1687 175.5 0.5 162.831 0.5 113.875V62.125C0.5 13.1687 13.1687 0.5 62.125 0.5H113.869C162.831 0.5 175.5 13.1687 175.5 62.125V113.875C175.5 162.831 162.831 175.5 113.875 175.5ZM62.125 6.75C16.5812 6.75 6.75 16.5812 6.75 62.125V113.875C6.75 159.419 16.5812 169.25 62.125 169.25H113.869C159.413 169.25 169.244 159.419 169.244 113.875V62.125C169.25 16.5812 159.419 6.75 113.875 6.75H62.125Z" fill="#455A64"/>
<path d="M147.783 58.6338C148.651 55.74 147.782 53.6087 143.645 53.6087H129.97C126.489 53.6087 124.889 55.4463 124.02 57.4775C124.02 57.4775 117.064 74.4275 107.214 85.44C104.026 88.6275 102.582 89.64 100.839 89.64C99.97 89.64 98.7075 88.6213 98.7075 85.7275V58.6338C98.7075 55.1588 97.7012 53.6087 94.8012 53.6087H73.3137C71.1387 53.6087 69.8325 55.2213 69.8325 56.7525C69.8325 60.0463 74.7575 60.8088 75.27 70.0838V90.2213C75.27 94.64 74.47 95.44 72.7325 95.44C68.1012 95.44 56.82 78.4088 50.1325 58.9275C48.82 55.14 47.5075 53.6087 44.0137 53.6087H30.3387C26.4325 53.6087 25.6512 55.4463 25.6512 57.4775C25.6512 61.1025 30.2825 79.065 47.2325 102.828C58.5387 119.053 74.4512 127.846 88.945 127.846C97.6387 127.846 98.7137 125.89 98.7137 122.528V110.265C98.7137 106.359 99.5387 105.577 102.289 105.577C104.32 105.577 107.795 106.59 115.914 114.415C125.182 123.684 126.714 127.846 131.932 127.846H145.607C149.514 127.846 151.47 125.89 150.345 122.034C149.114 118.19 144.682 112.621 138.807 106.009C135.62 102.24 130.845 98.1838 129.389 96.1587C127.364 93.5525 127.945 92.39 129.389 90.0713C129.382 90.0713 146.045 66.6025 147.783 58.6338Z" fill="white"/>
<path d="M145.644 130.945H131.969C126.906 130.945 124.369 128.114 120.15 123.426C118.488 121.583 116.45 119.314 113.744 116.601C106.281 109.408 103.119 108.682 101.956 108.682C101.913 108.989 101.875 109.476 101.875 110.239V122.501C101.875 129.507 96.725 130.945 88.9813 130.945C72.7563 130.945 56.2063 121.089 44.7063 104.583C28.1438 81.3638 22.5625 62.4888 22.5625 57.445C22.5625 53.0013 25.4125 50.4513 30.375 50.4513H44.05C50.05 50.4513 51.8813 54.2825 53.125 57.87C59.2813 75.8138 68.3563 89.1825 72.1313 91.8513C72.1625 91.445 72.1875 90.9075 72.1875 90.1825V70.045C71.9313 65.4888 70.4188 63.6138 69.0813 61.9638C67.9875 60.6138 66.75 59.0825 66.75 56.72C66.75 53.7075 69.275 50.4513 73.3563 50.4513H94.8438C98.0563 50.4513 101.875 51.8638 101.875 58.6013V85.695C101.875 85.82 101.881 85.9325 101.888 86.0388C102.594 85.5513 103.6 84.6325 105.044 83.195C114.288 72.8513 121.1 56.42 121.169 56.2513C122.8 52.4388 125.85 50.445 130.013 50.445H143.688C146.644 50.445 148.8 51.3325 150.094 53.07C150.956 54.2263 151.781 56.2825 150.819 59.495C149.056 67.6138 133.713 89.3888 131.963 91.845C131.831 92.0638 131.3 92.9263 131.231 93.22C131.25 93.22 131.363 93.5263 131.881 94.2013C132.513 95.07 134.069 96.595 135.575 98.0763C137.438 99.9013 139.544 101.97 141.219 103.951C148.594 112.245 152.113 117.214 153.344 121.039C154.369 124.576 153.463 126.801 152.513 128.058C151.544 129.382 149.556 130.945 145.644 130.945ZM102.331 102.426C105.156 102.426 109.244 103.583 118.119 112.139C120.969 114.989 123.081 117.333 124.8 119.245C128.888 123.801 129.881 124.695 131.963 124.695H145.638C146.931 124.695 147.456 124.401 147.525 124.32C147.525 124.32 147.681 123.939 147.375 122.883C146.225 119.308 140.963 113.076 136.506 108.058C134.9 106.158 132.944 104.245 131.206 102.551C129.275 100.664 127.756 99.17 126.888 97.9575C123.775 93.9513 124.994 91.2575 126.775 88.395C131.406 81.8575 143.456 63.9638 144.775 57.945C144.956 57.3075 145 56.9575 145 56.7888C144.888 56.8013 144.469 56.7075 143.688 56.7075H130.013C128.144 56.7075 127.469 57.4325 126.938 58.6763C126.663 59.345 119.675 76.2138 109.588 87.495C106.375 90.7138 104.106 92.7388 100.881 92.7388C98.35 92.7388 95.625 90.5325 95.625 85.7013V58.6075C95.625 57.4075 95.4812 56.9013 95.4125 56.7263C95.3438 56.7513 95.175 56.7138 94.8438 56.7075H73.3563C73.05 56.945 73.5875 57.6075 73.9438 58.045C75.5875 60.0763 78.0625 63.145 78.4375 69.8825L78.4438 90.195C78.4438 92.6888 78.4438 98.5388 72.7813 98.5388C64.7625 98.5388 52.7875 76.1075 47.225 59.92C46.1125 56.7138 45.5938 56.7138 44.0563 56.7138H30.3813C29.1562 56.7138 28.8 56.9513 28.7937 56.9513C28.8187 59.645 32.6938 76.9763 49.8188 100.989C60.1688 115.845 74.8 124.701 88.9875 124.701C95.6312 124.701 95.6312 123.783 95.6312 122.507V110.245C95.6312 106.376 96.425 102.426 102.331 102.426Z" fill="#455A64"/>
</svg>
